<svg width="122" height="122" viewBox="0 0 122 122" fill="none" xmlns="http://www.w3.org/2000/svg">
<circle cx="61" cy="61" r="61" fill="#00A03A"/>
<path d="M22.667 30.2977H27.8363V46H32.5886V30.2977H37.7579V26.4902H22.667V30.2977ZM39.1981 38.2183C39.1981 43.1097 42.2274 46.2223 46.0071 46.2223C48.3138 46.2223 49.9535 45.1662 50.815 43.8045V46H55.5674V30.4922H50.815V32.6878C49.9813 31.326 48.3416 30.2699 46.0348 30.2699C42.2274 30.2699 39.1981 33.327 39.1981 38.2183ZM50.815 38.2461C50.815 40.7196 49.2309 42.0814 47.4244 42.0814C45.6458 42.0814 44.0338 40.6918 44.0338 38.2183C44.0338 35.7449 45.6458 34.4108 47.4244 34.4108C49.2309 34.4108 50.815 35.7726 50.815 38.2461ZM59.0056 46H63.7579V39.4967L68.4825 46H74.3744L67.8711 38.2739L74.3188 30.4922H68.4547L63.7579 36.8009V25.4341H59.0056V46ZM83.0222 34.0773C84.6063 34.0773 85.9403 35.0501 85.9403 36.7454H79.9929C80.2708 35.0223 81.4658 34.0773 83.0222 34.0773ZM90.4426 40.8585H85.3845C84.9954 41.6923 84.245 42.3593 82.911 42.3593C81.3825 42.3593 80.1318 41.4144 79.9651 39.3856H90.7205C90.7761 38.9131 90.8038 38.4406 90.8038 37.996C90.8038 33.2714 87.6078 30.2699 83.0777 30.2699C78.4643 30.2699 75.2405 33.327 75.2405 38.2461C75.2405 43.1652 78.5199 46.2223 83.0777 46.2223C86.9408 46.2223 89.6922 43.8878 90.4426 40.8585ZM24.4735 65.6084C24.4735 69.6382 26.7246 71 29.9484 71H32.3663V66.9702H30.671C29.6149 66.9702 29.2258 66.5811 29.2258 65.664V59.4386H32.3385V55.4922H29.2258V51.7125H24.4735V55.4922H22.5836V59.4386H24.4735V65.6084ZM35.0135 71H39.7659V62.5791C39.7659 60.4669 40.9331 59.2997 42.7396 59.2997C44.546 59.2997 45.7133 60.4669 45.7133 62.5791V71H50.4379V61.9399C50.4379 57.7711 48.0756 55.3255 44.546 55.3255C42.4061 55.3255 40.7108 56.2426 39.7659 57.5766V50.4341H35.0135V71ZM60.5771 59.0773C62.1612 59.0773 63.4952 60.0501 63.4952 61.7454H57.5478C57.8257 60.0223 59.0208 59.0773 60.5771 59.0773ZM67.9975 65.8585H62.9394C62.5503 66.6923 61.7999 67.3593 60.4659 67.3593C58.9374 67.3593 57.6867 66.4144 57.52 64.3856H68.2754C68.331 63.9131 68.3588 63.4406 68.3588 62.996C68.3588 58.2714 65.1627 55.2699 60.6327 55.2699C56.0192 55.2699 52.7954 58.327 52.7954 63.2461C52.7954 68.1652 56.0748 71.2223 60.6327 71.2223C64.4957 71.2223 67.2471 68.8878 67.9975 65.8585ZM22.7782 88.2183C22.7782 93.1097 25.8075 96.2223 29.6149 96.2223C31.8939 96.2223 33.5336 95.194 34.3951 93.7767V96H39.1475V75.4341H34.3951V82.6322C33.4502 81.2148 31.6715 80.2699 29.6149 80.2699C25.8075 80.2699 22.7782 83.327 22.7782 88.2183ZM34.3951 88.2461C34.3951 90.7196 32.811 92.0814 31.0045 92.0814C29.2258 92.0814 27.6139 90.6918 27.6139 88.2183C27.6139 85.7449 29.2258 84.4108 31.0045 84.4108C32.811 84.4108 34.3951 85.7726 34.3951 88.2461ZM57.7599 88.2461C57.7599 83.327 54.2582 80.2699 49.7003 80.2699C45.1703 80.2699 41.6407 83.327 41.6407 88.2461C41.6407 93.1652 45.0869 96.2223 49.6447 96.2223C54.2026 96.2223 57.7599 93.1652 57.7599 88.2461ZM46.4765 88.2461C46.4765 85.6059 47.9772 84.3831 49.7003 84.3831C51.3678 84.3831 52.9242 85.6059 52.9242 88.2461C52.9242 90.8585 51.34 92.1092 49.6447 92.1092C47.9216 92.1092 46.4765 90.8585 46.4765 88.2461ZM72.8708 91.4977C72.7874 85.7171 64.3943 87.4679 64.3943 84.9945C64.3943 84.2441 65.0057 83.7994 66.1174 83.7994C67.4514 83.7994 68.2574 84.4942 68.3963 85.5503H72.7874C72.4817 82.4932 70.2584 80.2699 66.2564 80.2699C62.1988 80.2699 59.9476 82.4376 59.9476 85.0779C59.9476 90.7752 68.3963 88.9687 68.3963 91.4699C68.3963 92.1647 67.7571 92.7206 66.5343 92.7206C65.2281 92.7206 64.2554 91.998 64.1442 90.9141H59.4474C59.6697 93.9156 62.4489 96.2223 66.5899 96.2223C70.4807 96.2223 72.8708 94.1935 72.8708 91.4977ZM82.6151 84.0773C84.1992 84.0773 85.5332 85.0501 85.5332 86.7454H79.5858C79.8637 85.0223 81.0587 84.0773 82.6151 84.0773ZM90.0355 90.8585H84.9774C84.5883 91.6923 83.8379 92.3593 82.5039 92.3593C80.9753 92.3593 79.7247 91.4144 79.558 89.3856H90.3134C90.369 88.9131 90.3967 88.4406 90.3967 87.996C90.3967 83.2714 87.2007 80.2699 82.6706 80.2699C78.0572 80.2699 74.8334 83.327 74.8334 88.2461C74.8334 93.1652 78.1128 96.2223 82.6706 96.2223C86.5337 96.2223 89.2851 93.8878 90.0355 90.8585ZM97.9342 93.6655C97.9342 92.1925 96.7947 91.0531 95.1272 91.0531C93.4319 91.0531 92.2924 92.1925 92.2924 93.6655C92.2924 95.0829 93.4319 96.2223 95.1272 96.2223C96.7947 96.2223 97.9342 95.0829 97.9342 93.6655Z" fill="white"/>
</svg>
