<svg width="602" height="463" viewBox="0 0 602 463" fill="none" xmlns="http://www.w3.org/2000/svg">
<g clip-path="url(#clip0)">
<path fill-rule="evenodd" clip-rule="evenodd" d="M187.373 209.761C189.56 231.844 191.747 253.926 193.934 276.007C205.841 269.213 217.748 262.419 229.657 255.625V305.93V319.153C229.657 320.324 228.962 324.342 229.657 325.355C230.245 326.215 234.609 326.239 235.639 326.385C242.372 327.328 249.122 328.165 255.88 328.913C273.69 330.879 292.754 333.698 310.633 331.436C326.175 329.471 341.242 323.945 355.442 317.512C360.426 315.254 365.343 312.837 370.166 310.255C371.19 309.707 374.903 308.413 375.459 307.298C375.914 306.389 374.847 303.188 374.705 302.231C374.104 298.197 373.505 294.162 372.904 290.127L364.526 233.785L380.355 249.593C381.595 250.831 383.95 254.346 385.666 254.896C386.924 255.298 390.039 254.053 391.284 253.813C400.247 252.086 409.211 250.358 418.176 248.631C420.264 248.23 424.97 248.244 426.731 246.983C427.678 246.303 427.723 244.921 428.056 243.61C430.244 235.045 432.429 226.479 434.617 217.916C435.01 216.372 437.208 211.508 436.649 209.955C436.448 209.398 435.479 209.017 434.885 208.654C421.358 200.391 407.827 192.128 394.298 183.865C386.888 179.338 379.475 174.812 372.065 170.285C368.96 168.389 365.148 164.972 361.629 163.912C359.445 163.253 356.27 163.746 354.008 163.682C349.416 163.55 344.827 163.419 340.233 163.288C339.515 163.268 336.996 162.756 336.391 163.179C335.887 163.532 336.096 164.023 335.932 164.863C335.529 166.914 335.524 169.127 335.327 171.21C335.165 172.881 335.484 175.946 334.73 177.459C334.25 178.425 334.86 178.04 334.208 178.507C333.434 179.064 330.96 178.885 330.036 178.992C325.538 179.514 321.038 180.037 316.537 180.56C311.189 181.181 305.78 182.347 300.404 181.81C292.255 180.997 283.471 181.037 275.468 179.32C273.391 178.874 272.641 177.702 271.038 176.101C267.907 172.975 264.806 169.813 261.642 166.719C260.091 165.204 260.756 165.461 259.157 166.036C257.152 166.756 255.119 168.494 253.306 169.599C246.356 173.832 239.407 178.066 232.458 182.299L190.028 208.144C189.143 208.683 188.258 209.222 187.373 209.761Z" fill="#FFF76A"/>
<path fill-rule="evenodd" clip-rule="evenodd" d="M593.194 212.506C584.448 245.711 566.859 281.918 531.418 292.501C522.801 295.075 514.421 297.017 505.471 296.038C504.619 295.944 503.908 296.063 503.096 296.08C501.646 296.108 502.899 296.628 501.27 296.127C500.002 295.734 498.812 294.753 497.491 294.319C493.974 293.17 490.226 292.947 486.651 292.017C477.869 289.734 468.819 286.913 460.309 283.762C456.303 282.279 452.621 280.213 448.853 278.225C445.022 276.207 440.961 274.952 437.087 273.1C434.024 271.637 428.78 269.727 426.627 266.981C424.333 264.052 427.508 257.817 428.415 254.703C431.501 244.109 435.178 233.671 437.499 222.864C445.508 232.148 456.626 237.897 468.135 241.605C474.382 243.617 480.806 245.071 487.301 245.983C493.199 246.809 499.562 247.809 505.473 246.635C509.935 245.751 515.538 243.699 518.726 240.293C519.862 239.076 521.228 236.848 520.59 235.081C519.781 232.838 517.424 233.894 516.147 232.22C515.037 230.763 515.211 227.354 514.856 225.579C514.229 222.438 513.369 219.383 512.318 216.359C510.279 210.488 507.739 204.603 507.129 198.356C506.601 192.936 507.835 187.81 510.538 183.107C511.817 180.883 515.026 174.835 518.156 175.086C521.597 175.361 516.959 189.856 516.808 192.812C516.207 204.533 517.778 217.022 523.793 227.295C526.095 231.228 529.426 235.807 534.342 236.296C539.55 236.81 543.751 232.713 546.23 228.567C552.278 218.453 549.228 204.573 546.166 193.972C542.407 180.966 532.601 172.001 526.399 160.32C535.657 161.251 540.616 167.132 545.367 174.594C550.598 182.809 554.67 192.673 556.679 202.232C557.692 207.061 556.993 211.911 557 216.788C557.002 218.409 557.002 224.385 559.644 224.149C562.466 223.899 563.435 217.158 563.849 215.1C564.801 210.383 565.831 205.665 566.657 200.925C568.12 192.538 568.77 183.948 570.522 175.619C570.817 174.211 571.406 170.305 573.515 171.36C575.139 172.171 574.878 178.213 574.938 179.617C575.084 183.078 575.29 186.538 575.318 190.003C575.358 195.137 574.334 200.452 574.838 205.555C575.165 208.889 576.955 212.572 579.173 208.076C581.373 203.617 581.821 198.055 583.049 193.259C584.338 188.224 585.667 183.115 588.403 178.643C589.161 177.402 589.977 175.432 591.661 176.016C592.886 176.44 593.791 179.344 594.169 180.369C595.879 185 595.588 190.149 595.482 194.997C595.348 200.938 594.711 206.747 593.194 212.506ZM422.645 221.123C422.177 220.972 420.192 220.783 419.699 220.741C419.121 220.69 419.777 219.628 418.38 219.929C418.65 220.598 419.128 221.044 419.818 221.267C417.717 221.979 416.167 220.224 414.731 219.997C413.359 219.781 413.3 219.997 411.943 221.448C410.475 219.657 410.749 220.775 409.54 220.775C409.103 220.777 409.084 221.439 408.368 221.361C407.744 221.291 407.678 220.343 407.308 220.231C405.303 219.626 403.241 222.678 400.969 220.029C400.419 222.784 394.106 219.335 391.679 219.819C389.132 220.324 390.23 221.238 388.175 219.677C386.214 218.192 386.76 219.177 384.481 220.394C384.534 220.367 383.194 221.272 383.319 221.286C381.741 221.102 381.831 219.468 379.832 219.555C377.717 219.649 376.812 221.306 374.877 219.267C374.457 220.794 374.369 220.135 373.376 220.52C372.83 220.651 372.354 220.507 371.944 220.091C371.821 220.511 371.547 220.768 371.126 220.864C370.045 220.961 368.017 221.11 367.036 220.59C365.562 219.81 366.747 219.509 365.725 218.632C365.267 221.053 364.264 220.539 362.149 220.764C360.535 220.938 360.178 220.441 358.636 220.201C357.117 219.963 355.157 220.554 353.675 220.804C353.063 220.908 352.245 221.335 351.623 221.184C351.06 221.051 350.82 220.615 350.485 220.501C350.079 220.365 350.166 220.008 349.463 219.836C348.979 219.717 348.11 220.171 347.626 220.25C344.173 220.811 340.855 220.817 337.561 219.458C339.184 222.31 333.77 220.77 332.804 219.589C331.597 221.48 330.138 220.146 327.706 220.292C325.364 220.435 321.842 221.153 320.893 218.237C320.706 218.829 319.379 220.549 318.85 220.811C317.314 221.573 317.132 220.448 315.704 219.989C313.761 219.364 314.167 220.549 312.963 220.789C310.928 221.197 309.83 219.766 308.031 219.003C307.957 220.186 307.916 220.915 306.893 221.652C305.988 218.353 302.753 221.921 303.31 217.512C302.078 218.313 300.347 218.929 299.996 220.549C302.054 219.982 300.215 221.329 300.13 221.374C299.858 221.516 298.939 220.225 298.726 220.044C298.667 220.651 298.609 221.261 298.552 221.868C297.732 221.458 296.961 220.726 296.297 220.356C295.698 220.027 296.556 219.337 295.543 219.29C295.01 219.265 294.453 220.42 293.892 220.518C293.037 220.668 293.446 219.439 293.09 219.481C292.542 219.543 291.652 220.343 291.24 220.326C289.885 220.278 290.802 219.647 289.768 219.358C287.922 218.84 288.039 220.048 286.712 220.484C283.675 221.482 283.98 216.892 280.89 219.953C280.151 220.685 279.675 221.815 278.662 221.754C276.564 221.622 277.301 219.135 277.728 217.918C278.167 218.135 270.063 222.297 270.129 222.136C270.18 221.136 271.454 220.367 270.313 219.481C269.383 221.478 268.404 221.514 266.255 221.885C265.212 222.066 265.006 222.308 263.889 221.875C263.177 221.599 262.699 220.462 261.992 220.401C262.088 220.409 260.788 221.397 260.59 221.486C259.418 222.015 258.675 221.416 257.536 221.633C256.566 221.817 256.183 222.644 255.217 222.418C253.926 222.117 254.684 220.577 252.911 221.006C252.303 221.153 251.94 222.321 250.982 222.563C249.493 222.941 247.667 222.238 246.093 222.603C244.844 222.896 243.916 223.02 242.824 223.079C241.941 223.13 242.304 222.442 240.679 223.253L239.989 221.516C239.178 222.249 238.362 222.979 237.551 223.71C237.396 223.056 237.298 222.391 237.256 221.718C236.043 222.935 234.516 223.141 232.885 223.251C231.118 223.368 229.803 223.754 228.085 224.077C227.541 224.179 226.142 224.341 225.696 224.152C225.761 224.179 224.859 223.803 225.131 223.875C225.014 223.638 224.905 223.395 224.806 223.149C224.653 222.463 224.16 222.433 223.327 223.058C222.896 222.992 222.059 222.427 221.63 222.565C220.522 222.924 220.673 223.784 219.568 223.659C218.852 223.576 218.485 222.518 217.74 222.446C216.597 222.336 215.609 223.614 214.579 223.892C217.708 223.043 210.522 223.701 212.757 223.761C211.292 223.722 209.771 223.65 208.418 224.307C207.67 223.795 208.578 222.767 207.822 222.344C207.137 221.96 207.084 222.973 207.004 222.996C207.436 222.873 207.22 223.735 206.787 223.888C205.44 224.366 204.361 223.151 204.291 221.947C203.146 223.672 202.825 222.977 201.14 223.083C199.479 223.189 198.046 224.06 196.384 224.043C193.097 224.013 190.867 222.871 189.77 219.936C193.272 220.363 196.797 218.111 200.222 218.64C201.348 218.814 202.051 219.66 203.037 219.511C204.252 219.326 205.1 218.001 206.658 217.856C210.094 217.542 213.481 217.85 216.941 217.323C221.074 216.693 225.388 216.321 229.559 216.627C232.783 216.865 235.393 215.631 238.664 215.393C242.89 215.085 247.153 215.032 251.388 214.809C255.74 214.581 260.421 213.887 264.76 214.11C266.115 214.178 267.281 214.312 268.625 214.231C269.194 214.195 269.731 213.81 270.328 213.868C271.106 213.942 271.439 214.739 272.244 214.711C273.614 214.664 275.079 213.534 276.706 213.505C279.382 213.454 282.048 213.46 284.732 213.307C287.094 213.173 289.626 212.621 291.979 212.651C293.638 212.672 294.047 214.087 295.014 214.231C296.753 214.494 305.546 209.489 306.306 213.98C310.885 210.847 317.025 213.5 322.123 212.912C328.671 212.155 335.337 212.829 341.928 212.56C348.635 212.286 355.535 212.54 362.217 213.171C364.984 213.435 367.656 213.681 370.432 213.522C371.668 213.449 373.099 213.135 374.336 213.42C374.635 213.49 376.931 215.089 376.644 215.136C377.899 214.01 377.05 213.847 379.254 213.789C380.953 213.745 382.561 214.112 384.252 214.212C387.285 214.39 390.341 213.97 393.367 214.063C395.895 214.14 398.365 214.513 400.905 214.53C403.643 214.552 406.877 214.628 408.859 216.835C408.648 216.142 408.44 215.45 408.23 214.758C411.286 214.996 414.309 216.087 417.399 215.577C416.615 216.325 415.823 216.937 415.523 218.035C417.191 217.825 418.318 216.661 420.073 216.652C421.547 216.642 421.852 217.381 423.409 216.427C423.6 217.597 423.792 218.768 423.983 219.936C426.136 219.43 424.724 217.822 424.881 216.374C426.631 216.901 428.114 216.297 427.425 218.816C426.892 220.758 424.467 221.715 422.645 221.123ZM419.616 242.754C418.864 244.865 412.367 243.659 410.83 243.436C408.846 243.149 406.573 242.693 404.745 242.468C404.526 242.175 404.263 241.926 403.957 241.722C403.728 242.043 403.437 242.27 403.084 242.404C402.245 242.587 402.243 243.455 401.139 243.262C401.088 244.545 401.977 243.816 402.661 244.281C400.941 245.435 401.727 244.107 400.763 244.128C400.525 243.789 400.191 243.657 399.764 243.729C399.221 243.869 398.719 244.103 398.261 244.428C397.832 244.88 397.462 244.904 397.156 244.498C396.863 244.203 396.504 244.02 396.082 243.95C394.387 244.226 393.913 244.978 392.006 244.855C389.279 244.681 386.331 245.399 383.649 245.02C381.986 244.785 379.208 242.172 378.452 244.721C377.303 242.833 375.472 241.548 374.372 239.62C379.499 239.322 384.623 238.97 389.755 238.785C394.247 238.621 399.161 239.127 403.36 238.917C407.293 238.717 411.458 238.284 415.475 237.925C419.731 237.545 421.139 238.477 419.616 242.754ZM285.86 243.067C287.723 243.583 289.496 242.415 291.301 242.784C291.898 242.905 293.134 243.993 293.404 244.014C293.901 244.054 295.364 242.986 295.991 242.844C299.956 241.941 304.76 242.036 308.725 242.591C310.826 242.884 311.149 241.924 312.982 241.457C314.889 240.97 317.597 241.344 319.604 241.21C324.325 240.894 329.046 241.119 333.736 240.775C338.551 240.42 343.342 240.227 348.159 239.981C351.44 239.811 359.324 237.94 362.045 240.376C364.288 242.383 361.397 245.87 359.154 246.666C357.476 247.261 356.674 246.008 355.429 246.127C354.01 246.263 354.503 247.939 353.239 246.386C352.453 247.93 347.524 247.272 346.112 247.374C343.032 247.597 340.428 248.215 338.332 245.341C338.474 246.169 338.617 247 338.759 247.826C335.981 246.342 332.997 246.817 330.584 247.335C329.391 247.59 325.725 249.362 324.431 248.599C323.539 248.072 325.109 247.174 323.607 246.726C322.819 246.49 321.46 247.798 320.498 247.733C317.837 247.55 318.591 245.76 315.976 248.038C315.091 247.272 314.795 245.97 314.912 244.853C313.013 246.473 313.173 249.173 309.777 248.68C308.511 248.495 308.277 247.204 307.617 246.966C306.213 246.458 306.054 247.372 304.835 248.094C304.376 248.366 303.815 248.803 303.273 248.858C302.163 248.969 301.986 248.459 301.834 248.476C301.094 248.557 300.162 248.933 299.283 248.665C298.497 248.423 298.265 247.034 296.879 247.359C295.549 247.669 295.538 248.572 295.781 249.922C294.47 249.786 293.678 249.058 292.697 248.268C291.707 250.574 289.626 248.663 288.474 250.61C286.973 248.818 286.011 249.311 284.148 247.561C284.24 248.291 284.331 249.022 284.422 249.752C282.969 249.472 282.324 248.448 281.083 249.803C279.881 247.563 276.233 250.755 274.359 248.591C273.525 251.333 268.001 250.676 265.666 250.723C263.598 250.766 262.066 250.598 260.047 251.078C258.261 251.502 255.786 251.942 254.106 251.747C253.01 251.621 251.81 251.42 250.443 251.568C248.472 251.781 246.77 252.802 244.727 252.32C241.654 251.592 239.77 247.554 243.194 245.781C245.537 244.568 249.759 245.016 252.337 244.793C256.61 244.422 261.4 243.644 265.679 243.997C269.016 244.273 272.059 243.476 275.464 243.141C278.029 242.888 282.23 242.432 283.902 244.972C284.545 244.23 284.477 242.684 285.86 243.067ZM239.078 277.851C238.619 275.564 258.156 274.306 260.096 274.155C264.167 273.843 268.251 273.618 272.331 273.516C275.687 273.429 278.817 274.071 282.173 273.554C285.306 273.074 289.088 272.089 291.815 274.308C292.217 271.273 303.977 272.752 306.215 272.76C315.955 272.796 325.275 272.817 334.696 272.214C340.08 271.87 345.797 271.407 351.181 271.675C353.611 271.798 355.567 272.444 357.982 271.883C359.558 271.516 361.255 270.753 362.763 271.832C364.525 273.094 365.279 277.377 364.065 279.166C363.179 280.468 362.397 280.323 360.983 280.098C358.81 279.752 357.196 279.251 354.981 280.134C355.34 279.99 353.496 280.402 353.649 280.389C351.139 280.576 347.696 282.33 345.534 280.308C346.4 280.461 347.66 278.915 346.566 278.788C345.746 278.692 345.226 279.571 344.587 279.867C342.397 280.873 341.276 280.559 339.967 278.444C337.332 280.727 337.047 280.096 335.889 277.284C334.997 277.972 334.806 279.595 334.103 280.128C333.999 280.206 334.433 281.194 333.925 281.154C333.456 281.115 333.301 280.344 332.939 280.283C332.71 280.245 332.589 279.569 332.368 279.529C332.128 279.484 331.882 279.915 331.61 279.903C330.886 279.869 328.813 281.411 329.556 279.246C328.458 280.642 327.987 279.752 327.589 278.482C326.322 279.444 325.056 280.408 323.788 281.372C323.197 279.733 322.182 280.179 320.906 280.752C321.292 279.614 321.05 278.537 320.086 279.327C319.527 279.786 319.151 281.241 318.58 281.859C316.265 279.514 315.424 280.158 312.226 280.463C311.004 280.578 309.488 280.803 308.398 280.066C307.438 279.418 306.897 277.04 305.257 278.962C305.622 278.535 305.051 281.816 304.949 282.339C304.227 281.85 303.613 281.251 303.106 280.54C302.163 282.409 299.686 280.733 297.658 281.113C294.462 281.714 291.168 282.727 288.345 280.349C288.145 281.117 285.832 282.094 285.83 282.124C285.966 280.765 286.824 281.243 285.072 280.984C284.751 280.937 284.386 281.517 284.08 281.581C283.037 281.797 281.816 281.591 280.765 281.561C276.388 281.436 272.38 282.407 268.056 282.757C266.599 282.876 264.87 283.108 263.502 282.56C262.094 281.993 262.132 281.349 260.705 281.714C261.157 281.6 259.815 283.01 259.887 282.957C259.696 283.095 258.896 282.407 258.611 282.46C258.528 282.759 258.447 283.061 258.362 283.36C258.018 283.318 257.676 283.275 257.332 283.233C256.392 283.36 255.544 282.409 254.661 282.377C254.824 282.383 252.278 283.331 252.394 283.388C250.617 282.502 251.127 282.759 248.873 283.299C246.741 283.808 244.619 283.689 242.431 284.008C236.073 284.93 239.862 281.744 239.078 277.851ZM233.462 309.647C232.267 307.952 235.448 307.366 236.463 307.215C238.135 306.969 240.352 307.46 241.467 307.194C243.164 306.791 244.8 305.829 246.711 305.567C249.119 305.236 251.549 305.183 253.968 304.977C254.775 304.907 255.774 304.631 256.557 304.677C257.725 304.747 258.21 305.366 259.153 305.37C260.758 305.378 262.742 304.363 264.388 304.178C266.495 303.938 268.625 303.826 270.742 303.722C275.205 303.499 279.622 303.592 284.082 303.586C286.117 303.584 291.535 301.473 292.55 303.841C293.96 302.046 297.577 302.29 299.595 302.239C303.146 302.148 306.663 301.804 310.212 301.64C313.251 301.498 316.647 302.148 319.631 301.693C321.275 301.443 321.821 300.916 323.686 301.154C325.073 301.328 327.184 300.595 328.375 300.92C328.312 300.903 329.858 301.861 329.376 301.891C329.907 301.857 329.877 302.229 330.461 302.063C331.232 301.846 330.877 300.88 332.472 300.536C334.959 299.999 338.275 300.621 340.859 300.483C343.365 300.349 345.867 300.292 348.378 300.302C349.531 300.309 350.96 300.033 352.084 300.258C352.634 300.368 353.804 301.086 354.271 301.014C355.592 300.808 356.266 299.89 358.054 299.945C360.08 300.011 361.905 299.984 363.918 299.829C365.87 299.68 366.182 299.4 367.15 301.024C368.108 302.634 368.372 304.73 366.609 305.824C367.754 305.75 369.164 307.283 367.813 308.133C366.978 308.658 365.307 307.472 364.307 307.559C363.077 307.664 362.111 308.316 360.77 308.356C359.362 308.398 357.933 308.753 356.544 308.781C355.098 308.808 354.004 308.163 352.632 308.437C351.425 308.681 351.298 309.668 349.843 308.8C349.121 308.369 349 306.767 348.015 306.752C346.694 306.731 347.22 308.439 346.46 309.229C346.256 306.789 344.372 310.826 343.625 307.865C342.934 308.849 340.377 310.223 339.139 309.433C338.011 308.713 338.385 307.084 337.916 305.909C337.134 308.02 335.034 310.21 335.223 306.368C334.203 307.623 331.446 307.424 332.139 309.622C331.306 309.605 331.111 308.42 330.41 308.33C329.807 308.252 329.329 308.717 329.235 308.708C329.567 308.736 328.248 309.176 328.227 309.18C329.121 308.999 325.648 308.689 326.241 308.694C325.436 308.687 324.448 309.348 323.507 309.346C322.649 309.344 321.798 309.006 320.95 308.908C318.754 308.658 319.211 309.14 317.835 309.83C317.323 310.085 317.195 310.518 316.469 310.463C315.936 310.425 315.734 309.726 315.675 309.719C314.923 309.643 315.477 309.39 314.309 309.507C314.175 309.739 314.041 309.968 313.908 310.199C313.487 310.739 312.939 310.873 312.268 310.605C310.539 310.975 304.807 312.582 305.368 309.607C304.488 310.036 303.611 310.465 302.732 310.894C302.356 308.496 297.584 311.678 296.518 311.837C295.15 312.043 295.022 311.518 293.729 311.238C293.497 311.187 293.03 311.958 292.482 311.848C291.066 311.561 290.811 311.421 290.569 309.879C289.558 311.771 288.717 310.924 286.882 311.236C286.476 311.304 286.217 312.104 285.633 311.966C285.214 311.867 285.202 311.1 284.913 311C284.652 310.911 284.692 310.306 284.307 310.219C283.868 310.119 282.366 311.351 281.935 311.54C280.965 311.969 279.37 312.676 278.422 312.463C277.25 312.202 277.77 311.334 276.114 311.431C273.501 311.584 272.412 313.808 270.785 310.303C270.052 311.707 270.146 312.088 268.967 312.551C268.096 312.895 265.892 312.536 264.745 312.493C259.849 312.313 255.034 313.982 250.179 313.544C248.045 313.353 246.244 312.926 244.09 313.275C241.828 313.642 239.613 314.182 237.317 314.4C236.151 314.509 233.711 314.844 233.14 313.353C232.634 312.039 234.516 311.142 233.462 309.647ZM243.064 363.519C236.714 367.766 231.453 373.569 225.621 378.481C219.776 383.407 215.136 388.882 209.879 394.336C205.017 399.378 200.551 404.148 194.674 407.958C190.955 410.369 187.638 413.338 183.817 415.61C180.956 417.314 176.621 419.555 178.017 414.345C179.448 409.007 182.09 403.613 184.384 398.628C187.644 391.543 190.93 384.522 194.458 377.57C195.784 374.96 196.526 372.358 198.629 370.279C200.917 368.015 202.519 365.059 205.025 362.918C215.565 353.919 231.449 360.872 243.064 363.519ZM262.986 366.569C260.106 368.079 256.882 368.452 253.828 369.453C251.226 370.302 248.807 371.817 246.01 371.927C248.557 370.016 250.744 367.416 253.616 365.965C256.846 364.332 259.779 365.522 262.986 366.569ZM389.432 379.155C378.836 375.578 368.971 370.311 358.649 366.069C356.867 365.337 342.934 360.749 343.217 358.564C352.98 356.776 363.037 353.707 372.825 357.054C381.729 360.097 388.971 367.401 395.865 373.514C397.662 375.109 408.784 382.372 407.79 384.685C407.1 386.289 401.742 385.851 400.476 385.522C398.841 385.097 397.9 384.105 396.617 383.014C394.474 381.193 392.102 380.053 389.432 379.155ZM369.871 319.419C371.481 317.937 372.443 315.69 373.981 314.324C375.956 312.568 379.144 313.423 381.304 314.335C387.784 317.072 393.321 321.677 399.76 324.533C406.896 327.7 413.075 331.931 419.512 336.291C425.395 340.275 431.758 343.576 437.762 347.38C443.883 351.256 450.733 353.775 456.936 357.515C463.251 361.321 469.539 365.141 475.607 369.334C486.426 376.812 497.691 384.492 505.694 395.124C509.808 400.588 513.66 406.788 516.678 412.924C519.422 418.503 522.398 426.247 518.842 432.049C515.427 437.622 509.606 442.012 504.678 446.171C502.814 447.744 501.038 449.658 498.621 450.34C495.68 451.17 492.245 450.941 489.221 451.185C473.046 452.498 457.975 451.259 442.033 448.367C426.663 445.578 411.229 444.015 395.74 442.076C387.002 440.982 378.267 439.71 369.648 437.888C365.963 437.108 362.215 436.212 358.608 435.15C355.461 434.224 352.812 432.185 349.576 431.376C335.836 427.946 320.116 426.633 306.512 420.863C318.55 415.859 331.342 412.839 343.678 408.682C356.663 404.307 369.344 400.635 383.031 399.393C390.073 398.753 396.375 396.955 403.15 395.073C409.604 393.278 416.345 392.728 422.976 391.925C425.924 391.566 434.341 392.104 435.318 388.249C436.773 382.508 428.504 381.845 424.979 382.362C419.979 383.09 415.855 384.337 412.028 380.236C408.122 376.045 404.324 371.757 400.346 367.62C392.968 359.951 385.365 351.081 374.939 347.641C362.217 343.442 347.465 347.426 334.772 349.814C321.364 352.335 307.98 354.749 294.825 358.415C289.377 359.932 282.351 363.275 276.696 362.739C271.125 362.208 264.813 361.295 259.429 359.689C256.99 358.963 254.988 357.614 252.809 356.359C249.973 354.724 246.866 353.677 243.859 352.407C237.774 349.839 231.844 347.475 225.279 346.464C219.753 345.615 213.883 345.111 208.525 347.048C203.27 348.949 198.614 352.821 194.947 356.956C190.965 361.448 187.673 366.482 184.408 371.5C182.841 373.911 180.928 376.013 179.305 378.367C177.942 380.346 177.147 382.542 175.705 384.464C172.477 388.765 170.287 394.266 168.331 399.27C166.158 404.826 163.744 411.435 164.263 417.479C164.459 419.765 164.664 422.791 165.548 424.909C166.672 427.604 168.275 427.536 170.585 428.551C174.555 430.297 175.668 435.124 180.798 434.181C185.61 433.3 189.783 429.335 193.293 426.175C197.869 422.056 202.248 417.713 206.626 413.387C211.119 408.946 215.548 404.021 219.122 398.798C220.528 396.74 221.624 394.419 223.287 392.545C225.405 390.16 227.783 389.874 230.659 388.924C255.803 380.616 281.069 372.602 306.999 367.117C313.211 365.802 319.474 364.107 325.576 362.357C332.047 360.503 335.399 362.463 340.743 365.995C351.901 373.373 365.092 378.571 377.519 383.385C381.431 384.9 387.661 384.997 390.719 387.986C372.59 390.749 355.31 396.067 337.824 401.364C329.201 403.974 320.481 406.238 311.826 408.733C303.167 411.231 294.84 414.468 286.302 417.284C277.802 420.085 268.822 421.228 260.242 423.813C251.481 426.453 242.761 428.267 233.768 429.87C224.691 431.491 215.675 433.36 206.566 434.81C202.395 435.473 198.225 436.163 194.101 437.076C190.065 437.97 186.166 440.111 182.109 440.606C163.995 442.823 146.237 447.761 128.194 450.552C114.721 452.636 91.2834 455.543 82.5472 442.027C73.7621 428.434 84.54 412.578 94.1566 402.859C100.133 396.819 106.849 391.503 113.895 386.773C121.435 381.712 128.69 376.247 136.232 371.192C153.301 359.755 171.809 350.427 190.146 341.235C198.948 336.824 207.452 332.094 216.015 327.252C220.263 324.85 222.616 328.728 225.974 331.361C228.616 333.434 233.469 338.544 237.164 336.183C237.307 337.032 237.451 337.884 237.591 338.736C238.674 338.241 239.758 337.748 240.841 337.255C241.569 339.162 241.482 340.348 243.515 341.348C244.763 341.964 247.425 342.705 248.614 341.62C248.858 342.374 249.1 343.128 249.342 343.879C250.383 343.801 250.583 340.825 250.78 340.129C252.562 342.73 255.026 344.907 258.159 345.642C258.176 345.472 257.651 343.334 257.672 343.321C258.664 342.713 259.913 345.313 260.44 345.87C262.181 347.713 263.22 347.426 265.144 345.938C265.284 346.09 265.936 347.789 266.032 347.76C266.448 347.628 267.238 346.12 267.325 345.984C267.204 347.966 271.029 348.363 272.38 347.938C272.076 347.358 271.775 346.779 271.471 346.197C276.177 345.57 278.023 350.567 282.54 350.315C285.879 350.126 283.201 349.397 285.089 347.966C286.739 346.717 287.035 349.45 287.196 349.363C287.51 349.032 287.754 348.654 287.929 348.227C288.538 350.565 293.402 352.666 292.901 348.817C294.814 349.582 296.171 350.852 298.289 351.122C300.863 351.447 303.611 350.901 306.179 350.689C311.712 350.228 316.926 349.1 321.912 346.564C324.869 345.062 328.016 343.699 330.797 341.885C333.122 340.369 337.533 335.762 340.63 337.746C339.838 335.407 343.572 337.574 343.69 334.56C344.289 335.012 344.89 335.465 345.489 335.917C345.848 335.129 345.748 333.887 346.231 333.199C346.891 332.256 347.214 332.81 347.779 332.279C348.41 331.686 348.96 330.096 349.716 329.641C350.497 329.176 351.415 329.732 352.252 329.325C353.53 328.705 359.025 322.645 358.094 327.836C360.456 327.033 358.634 326.3 358.929 324.727C359.522 321.571 360.966 323.841 362.402 324.117C364.755 324.567 364.708 322.622 366.018 321.209C367.216 319.918 369.47 319.34 368.692 317.098C369.58 317.576 369.769 318.51 369.871 319.419ZM228.04 252.042C226.188 254.106 224.799 253.225 222.739 252.921C222.518 252.182 222.142 252.08 221.609 252.613C220.998 252.966 220.341 253.195 219.638 253.306C217.95 253.722 216.193 253.546 214.541 254.176C214.588 253.622 215.17 252.639 214.796 252.076C213.059 253.278 211.981 254.045 209.846 254.066C208.116 254.085 205.08 252.764 203.644 254.342C203.599 253.728 203.555 253.114 203.511 252.499C202.808 252.849 202.196 253.318 201.675 253.907C201.576 252.996 201.522 252.305 200.919 251.568C199.777 253.919 198.525 253.975 196.305 253.076C196.616 253.204 194.082 251.719 194.179 252.129C193.379 248.754 206.022 249.035 207.349 248.901C210.664 248.565 213.978 248.372 217.298 248.066C220.447 247.775 222.796 247.285 224.976 249.912C224.005 246.119 233.191 246.305 228.04 252.042ZM83.079 193.2C83.4273 198.936 84.7039 205.034 82.4735 210.555C80.6803 214.991 77.1035 220.004 73.2504 222.901C65.3607 228.83 58.6734 221.573 57.5753 213.6C56.4306 205.283 58.6997 195.12 65.8613 189.991C70.1407 186.927 74.2843 187.14 79.2114 188.147C80.3685 188.384 82.2469 188.293 82.9084 189.443C83.0637 189.712 82.9246 193.195 83.079 193.2ZM187.866 269.625C186.503 270.313 185.077 270.717 183.876 271.654C183.458 271.979 183.316 272.718 182.873 272.992C182.067 273.491 180.915 273.159 180.075 273.571C178.685 274.251 177.688 275.224 176.036 275.848C173.581 276.778 171.43 278.055 169.111 279.263C165.246 281.279 161.099 283.008 157.058 284.649C155.019 285.478 149.378 287.09 149.574 290.076C149.117 290.199 148.651 289.203 147.699 289.282C146.391 289.39 144.663 290.902 143.306 291.274C140.767 291.97 138.801 292.032 138.801 295.269C137.993 294.719 137.787 293.376 136.712 293.198C135.501 292.996 134.992 294.302 134.024 294.708C132.884 295.188 131.466 294.729 130.336 295.239C129.842 295.759 129.294 296.216 128.689 296.605C128.075 296.677 127.464 296.658 126.855 296.547C124.458 297.057 122.252 297.958 119.849 298.427C117.507 298.884 115.903 299.051 116.888 301.819C114.383 302.309 113.771 299.652 110.944 300.623C107.48 301.814 104.241 302.675 100.625 303.401C98.7804 303.771 96.8532 304.599 94.9951 304.792C93.6698 304.93 92.4324 304.457 91.1275 304.605C89.5544 304.781 88.2903 305.51 86.6626 305.535C85.1185 305.563 83.4972 305.287 81.9809 305.015C82.1952 305.625 82.4633 306.211 82.7855 306.772C81.7369 306.553 81.2531 305.291 80.3641 305.104C79.4315 304.909 78.5957 305.871 77.819 305.659C77.4881 305.567 77.7082 304.548 77.1167 304.352C76.5774 304.176 76.35 304.384 75.8152 304.301C75.6368 304.274 73.3997 304.153 73.0436 304.34C72.4206 304.671 73.0508 305.289 72.927 305.38C70.8233 306.937 70.7978 306.098 69.8601 304.471C68.483 302.084 66.8224 303.59 64.3196 303.174C61.5304 302.706 59.3328 303.938 56.5873 303.762C53.626 303.575 50.1461 301.358 47.5282 300.064C41.8747 297.269 36.3619 294.625 31.614 290.394C22.3325 282.122 14.7818 271.947 10.3298 260.299C5.54629 247.788 4.63988 234.737 5.02387 221.463C5.25486 213.479 5.89386 205.5 7.15222 197.609C8.01857 192.182 8.20001 182.537 14.3191 180.065C15.3712 192.773 12.0516 205.723 14.1449 218.349C14.7752 222.151 16.3126 227.218 19.2221 230.035C23.5297 234.206 24.5375 228.178 24.9272 224.848C25.6523 218.666 26.9995 212.517 27.9533 206.364C28.9063 200.212 29.5795 193.993 30.905 187.906C31.3882 185.687 35.2848 169.436 38.1448 170.205C37.5663 182.028 36.0295 193.647 35.9692 205.513C35.9449 210.272 35.5187 215.299 36.206 220.027C36.5592 222.461 38.775 229.599 42.5858 229.005C46.1125 228.454 42.2354 223.425 41.906 221.486C41.0337 216.353 42.1457 209.965 42.9588 204.87C44.4977 195.227 47.9311 185.351 53.543 177.292C58.5691 170.077 66.308 163.208 75.6308 164.48C79.6143 165.024 82.722 166.014 84.7235 169.651C86.2939 172.506 92.4798 175.749 88.8949 179.323C85.6314 182.576 80.3532 179.972 76.7253 179.197C72.2836 178.247 67.5235 179.389 63.8088 181.992C57.4354 186.457 53.8031 194.439 52.6176 201.925C51.0198 212.02 55.2911 238.441 71.0229 232.519C81.4738 228.586 89.3452 214.435 88.468 203.6C88.1161 199.263 86.4207 191.03 92.421 189.859C100.108 188.359 101.194 196.833 100.416 202.34C99.284 210.35 95.0505 217.799 90.2073 224.13C85.9863 229.65 81.0768 233.101 75.9974 237.661C74.4935 239.01 70.658 242.045 71.302 244.555C72.0082 247.306 78.0361 248.087 80.4501 248.54C92.391 250.774 105.857 248.718 117.777 247.157C142.278 243.95 166.456 236.047 186.546 221.52C187.358 230.508 188.381 239.467 188.757 248.489C188.94 252.868 188.987 257.311 189.488 261.667C189.796 264.345 190.91 268.088 187.866 269.625ZM119.931 300.948C118.969 301.451 120.009 298.408 119.741 299.414C121.178 299.931 121.241 300.442 119.931 300.948ZM221.565 192.163C223.092 190.48 227.263 186.476 228.588 190.276C229.081 188.656 229.145 186.257 231.046 188.445C231.804 185.758 240.155 186.009 242.223 185.891C248.848 185.512 255.5 185.309 262.1 184.651C275.663 183.299 289.464 183.997 303.076 183.952C306.024 183.943 308.965 183.783 311.892 184.211C314.715 184.623 317.684 185.781 320.562 185.358C323.121 184.982 324.799 184.276 327.432 184.578C330.584 184.939 333.645 185.196 336.824 185.185C350.888 185.133 364.946 185.703 379.014 185.725C381.756 185.729 385.04 185.194 387.612 186.358C388.565 186.79 389.606 188.227 390.334 188.384C391.169 188.564 390.674 187.263 391.789 187.851C393.287 188.637 392.127 191.056 391.139 191.44C391.732 191.21 390.071 190.984 390.237 190.975C389.451 191.018 388.778 191.622 387.932 191.584C386.643 191.528 385.566 190.742 384.528 190.05C384.511 190.333 385.08 192.216 384.428 192.31C383.869 192.393 383.343 190.536 383.288 190.104C380.14 192.88 376.806 191.333 372.9 191.684C370.13 191.934 364.355 193.782 362.423 190.89C362.342 191.505 362.096 192.043 361.684 192.505C361.132 193.346 360.654 193.275 360.25 192.288C360.114 192.295 358.768 192.587 358.742 192.585C357.795 192.51 356.567 192.17 355.603 192.088C354.112 191.961 354.388 193.046 353.199 193.063C352.551 193.073 350.897 192.136 349.767 192.078C347.809 191.976 345.808 192.806 343.875 192.555C342.544 192.382 341.341 191.299 340.037 191.257C338.411 191.203 337.884 192.443 336.595 190.701C336.331 190.629 336.168 191.654 336.062 191.672C336.087 191.668 334.836 191.853 334.687 191.911C334.43 192.009 333.43 192.467 333.126 192.472C332.468 192.485 332.111 192.013 331.415 192.003C330.259 191.983 326.579 192.998 326.68 190.864C322.564 192.39 319.052 191.795 314.825 192.156C312.888 192.322 311.669 192.062 309.826 191.706C307.515 191.261 305.981 191.821 303.677 191.934C301.464 192.043 300.767 191.106 298.898 190.26C298.161 189.927 297.675 189.487 296.77 189.672C296.254 189.778 296.622 190.646 296.469 190.705C295.674 191.012 295.12 190.687 294.033 190.762C292.021 190.899 291.221 192.579 289.154 191.002C289.84 190.919 290.528 190.834 291.216 190.751C289.239 189.913 286.631 189.486 287.111 192.536C285.425 192.299 286.884 191.152 286.055 190.741C285.227 190.331 284.299 191.018 283.256 191.357C280.502 192.251 278.204 191.807 275.33 191.647C272.066 191.464 264.43 194.128 262.092 190.67C262.022 191.398 261.24 193.429 260.198 193.333C259.858 193.302 260.805 191.147 260.911 190.919C260.376 192.06 257.929 192.277 256.723 192.869C256.859 192.256 256.993 191.642 257.129 191.029C256.009 192.221 255.466 191.494 254.147 191.892C253.571 192.067 252.739 193.254 252.246 193.326C251.672 192.66 250.95 192.375 250.082 192.467C249.504 192.323 248.926 192.294 248.351 192.382C246.038 192.55 243.929 193.835 241.631 192.96C239.639 192.202 238.87 190.252 237.683 193.354C237.37 192.803 237.058 192.251 236.746 191.7C236.361 192.299 235.975 192.897 235.591 193.495C234.085 192.509 233.991 191.938 232.258 192.3C231.85 192.462 231.434 192.439 231.007 192.231C230.905 192.536 230.803 192.839 230.701 193.143C230.659 193.907 230.434 194.159 230.022 193.899C229.673 193.774 229.361 193.585 229.081 193.332C227.934 193.419 226.471 193.721 225.239 193.554C224.765 193.491 221.788 191.919 221.565 192.163ZM256.657 171.626C256.791 171.834 256.927 172.041 257.061 172.248C255.2 173.231 254.763 172.667 254.569 170.693C255.478 170.71 255.633 172.31 256.657 171.626ZM257.81 170.468C258.707 170.863 259.734 171.64 260.578 170.599C261.147 172.252 256.925 174.507 257.81 170.468ZM263.6 171.197C265.482 172.47 260.966 171.447 260.975 171.449C261.786 170.7 262.661 170.616 263.6 171.197ZM279.788 164.104C280.434 167.361 282.213 167.268 285.087 165.755C289.277 163.546 289.985 159.93 290.278 155.612C290.558 151.472 291.063 149.87 295.332 150.734C298.312 151.337 300.833 150.83 303.838 150.747C307.043 150.659 308.173 151.148 308.43 154.447C308.689 157.751 309.278 160.259 311.673 162.772C314.112 165.328 317.361 166.854 320.528 168.284C322.157 169.018 323.686 169.809 325.487 169.968C326.186 170.03 329.82 169.571 329.896 170.72C329.951 171.585 324.92 174.023 324.387 174.313C322.053 175.583 319.725 176.721 317.176 177.49C311.31 179.26 305.091 179.364 299.017 179.257C289.222 179.085 275.685 174.942 269.829 166.252C273.149 165.537 276.468 164.82 279.788 164.104ZM278.909 135.901C277.358 134.6 276.356 132.636 275.069 131.096C274.419 130.319 273.943 130.071 273.325 129.683C272.675 129.273 272.308 129.852 271.766 128.89C270.362 126.403 274.691 122.904 270.101 121.947C268.548 121.622 264.811 122.853 264.356 120.628C263.715 117.481 269.721 117.276 271.133 115.679C273.943 112.504 272.036 107.121 273.748 103.459C275.366 99.9891 279.548 99.3726 282.848 98.3302C287.447 96.8783 292.1 96.0366 296.77 94.8745C300.035 94.0625 305.459 90.7994 308.485 93.6824C303.815 94.7198 306.529 96.348 309.645 97.2672C313.171 98.309 316.911 98.7152 320.566 99.0058C324.327 99.304 328.161 99.3609 331.88 98.611C335.316 97.9173 339.156 94.9293 342.762 95.6945C340.762 99.1721 334.802 101.072 331.183 101.983C329.337 102.447 328.157 102.302 328.405 104.602C328.645 106.831 330.582 109.066 331.02 111.388C331.599 114.462 331.094 117.286 330 120.176C328.923 123.02 328.673 123.391 329.611 126.108C331.077 130.34 327.927 135.016 325.017 138.089C313.245 150.512 290.715 145.806 278.909 135.901ZM308.823 61.6495C308.872 61.7766 308.832 61.7283 308.823 61.6495V61.6495ZM312.491 93.0025C312.003 93.3674 309.191 94.1318 309.307 93.0331C309.465 91.5611 311.998 92.0929 312.491 93.0025ZM318.899 63.2639C318.238 62.7722 316.39 62.9744 317.741 61.1105C318.181 61.9303 318.54 62.5972 318.899 63.2639ZM274.557 51.4816C275.398 49.2968 276.33 47.2643 276.708 44.9386C276.942 43.5059 276.477 41.8695 278.48 41.6448C275.929 40.5317 275.901 36.1378 275.75 33.8602C275.544 30.7233 274.553 26.5236 275.931 23.6041C277.345 20.605 279.255 20.6546 279.833 24.2262C280.058 25.6247 279.195 26.0771 279.032 27.0509C278.711 28.9777 279.35 28.5552 280.593 27.0874C281.105 28.5792 281.302 30.8212 283.39 30.7262C283.252 30.3229 282.451 29.4328 282.719 28.9316C283.129 28.1619 285.136 29.3379 285.389 29.5161C287.221 30.797 287.619 31.9664 286.312 33.5822C288.12 33.7772 286.603 35.3601 287.769 35.7729C289.551 36.4027 288.356 33.4195 288.162 32.8951C289.248 33.3182 289.611 33.8012 290.297 34.6575C290.7 35.2486 291.068 35.8619 291.399 36.4967C291.766 37.6551 292.527 37.9454 293.678 37.3677C295.984 38.0913 299.168 37.9784 301.237 39.2433C302.18 39.821 302.522 41.0853 303.312 41.5653C304.197 42.1058 305.387 41.8608 306.34 42.1999C305.992 42.9923 306.274 43.4212 307.188 43.4883C307.897 43.5533 308.583 43.713 309.246 43.967C309.743 43.5925 310.282 43.2971 310.866 43.082C311.257 43.7729 311.811 43.9436 312.529 43.5955C314.655 43.994 315.679 44.7985 317.03 46.0014C318.242 47.0812 317.255 47.1687 318.584 47.0731C319.12 47.0345 320.056 46.1284 321.277 46.3049C321.98 46.4421 322.66 46.6588 323.312 46.955C324.017 47.5591 324.767 47.6349 325.561 47.1833C326.848 47.8129 326.976 48.9283 328.545 49.0808C330.283 49.2501 329.724 47.0848 330.918 50.1385C332.523 46.9011 333.111 52.0586 334.77 52.4751C336.486 52.9071 336.673 51.5145 338.143 53.0363C338.585 53.492 338.559 54.2458 339.054 54.7294C339.865 55.521 340.961 55.3625 341.666 56.4423C341.273 55.8397 341.758 58.5776 341.751 58.4871C341.86 59.6952 340.787 61.0485 342.987 60.9455C342.962 61.0725 341.904 62.6125 341.698 62.4381C341.649 62.2623 341.605 62.0843 341.573 61.9042C341.335 62.0055 341.231 63.4727 341.276 63.7316C341.46 63.7607 341.539 63.6222 341.503 63.3157C341.142 64.4473 341.688 65.1658 340.993 66.2396C340.549 66.926 339.332 67.4419 338.684 67.8656C337.126 68.8885 335.599 69.9141 334.078 71.0026C330.531 73.5414 326.557 76.6023 322.091 77.132C324.334 74.9289 337.245 66.5913 330.769 64.1977C329.569 63.7543 327.381 63.334 326.124 63.2405C324.563 63.1246 322.947 64.0189 321.224 63.461C319.145 62.7884 319.929 60.834 318.659 60.1329C315.961 58.6454 316.599 62.1433 315.749 63.0598C314.859 62.1238 315.048 61.6684 313.642 61.5839C312.213 61.4979 311.871 62.8189 310.204 61.9962C307.906 60.8616 309.123 58.6025 305.862 58.5491C305.916 58.053 306.389 56.667 305.767 56.2802C304.928 57.3681 305.578 58.5842 304.798 59.631C304.41 60.1563 303.564 60.5749 302.946 60.745C301.502 61.1417 301.296 61.9019 301.532 59.7258C300.459 61.6553 297.176 60.8616 295.222 60.6677C292.047 60.3517 288.67 59.7506 285.624 58.7322C282.81 57.7897 281.304 56.1709 278.983 54.698C278.104 54.1407 277.685 54.3537 276.426 54.0079C275.183 53.6664 273.973 53.0048 274.557 51.4816ZM281.26 17.3163C281.74 17.0275 282.084 21.3382 281.502 22.1435C280.438 20.4605 278.552 17.9919 281.26 17.3163ZM282.791 15.5969C284.333 14.2013 283.263 17.8058 282.978 18.4106C282.407 18.0444 281.837 17.6782 281.266 17.312C281.995 16.8648 282.175 16.1535 282.791 15.5969ZM340.968 9.78777C355.212 12.7773 369.33 18.3654 380.754 27.5617C391.163 35.938 398.507 47.8224 402.625 60.464C406.901 73.5858 405.465 88.144 395.294 98.1864C389.937 103.476 382.863 106.668 376.12 109.782C372.889 111.274 369.561 112.517 366.318 113.974C363.988 115.021 361.144 116.696 358.487 116.406C359.842 114.979 361.809 114.95 363.451 114.077C365.434 113.023 367.055 110.998 368.763 109.552C370.459 108.116 374.225 103.596 376.833 104.69C376.47 102.282 379.214 101.164 380.45 99.5754C381.758 97.8954 381.852 95.9309 384.262 95.3808C381.673 93.3557 382.468 89.5359 383.028 86.779C383.751 83.2534 384.084 80.0164 384.366 76.4288C384.878 69.9602 385.29 61.7203 381.718 56.0336C380.556 54.1874 379.08 52.4904 378.046 50.5726C376.799 48.2616 377.075 46.227 377.075 43.6934C374.794 45.2254 374.314 42.1016 373.35 40.579C372.628 39.4366 371.679 38.7984 371.445 37.3612C371.275 36.3149 372.409 36.1385 371.789 35.0421C371.024 35.6183 370.721 36.5112 370.334 37.3399C369.629 37.0585 370.459 36.0779 370.056 35.7591C370.045 35.7504 368.686 35.1602 368.754 35.2456C367.879 34.1374 367.599 32.2983 367.17 30.9794C365.568 31.7905 365.868 31.6949 364.082 30.3397C363.767 30.101 362.193 29.0053 362.047 28.6472C361.354 26.9721 362.567 27.9644 362.227 26.9248C361.255 23.9388 355.794 24.5036 355.363 20.0294C352.7 21.7196 351.685 19.3247 350.111 17.6213C348.499 15.8763 345.793 15.2051 345.937 12.4374C345.099 12.7241 344.262 13.01 343.425 13.2953C343.86 10.7413 340.065 10.9039 338.691 9.6083C339.453 9.6178 340.212 9.67762 340.968 9.78777ZM343.136 167.975C344.457 166.793 344.056 168.365 344.905 168.185C345.632 168.031 345.776 167.482 346.473 167.314C349.344 166.62 353.634 167.492 356.652 167.342C360.148 167.169 366.142 167.895 367.807 171.985C368.811 174.449 367.28 173.611 365.592 173.428C364.283 173.286 363.122 173.551 361.826 173.538C361.185 173.636 360.547 173.627 359.912 173.508C359.602 173.304 359.42 173.016 359.362 172.646C357.561 172.373 355.648 173.439 353.653 173.492C350.99 173.563 348.624 173.052 346.602 171.254C345.797 172.453 345.249 173.048 343.803 173.182C343.765 173.185 342.352 172.616 342.134 172.559C341.845 172.484 341.112 173.092 340.553 172.918C341.543 171.341 341.688 169.269 343.136 167.975ZM524.983 182.209C525.452 180.575 525.845 178.919 526.274 177.273C532.845 184.755 538.596 194.77 541.185 204.365C542.865 210.601 545.482 221.898 537.467 225.114C530.938 227.734 527.3 218.343 525.647 213.719C522.001 203.509 522.001 192.598 524.983 182.209ZM230.941 64.9753C231.026 64.9585 226.687 67.4821 228.117 65.4387C228.69 64.6172 230.869 64.0395 231.833 64.0395L230.941 64.9753ZM226.768 66.0449C226.265 66.4673 225.759 66.8844 225.247 67.296C224.757 66.5198 224.264 65.7435 223.773 64.9674C224.742 64.5588 228.854 64.2525 226.768 66.0449ZM223.71 144.503C222.801 143.887 222.081 144.214 221.809 145.247C221.809 144.219 222.344 141.833 223.166 141.555C223.697 141.375 221.401 138.658 222.047 137.946C223.688 138.887 222.705 139.788 223.185 141.002C223.402 141.549 224.054 142.067 224.198 142.488C224.44 143.203 225.419 145.659 223.71 144.503ZM219.262 138.388C218.332 138.625 219.959 140.16 219.959 140.839C219.957 141.352 219.341 141.746 219.086 142.447C218.536 143.968 219.483 144.996 217.924 146.156C217.924 142.824 215.688 133.994 219.984 132.37C217.888 130.719 219.611 128.814 221.252 130.789C222.833 132.689 221.826 137.731 219.262 138.388ZM217.024 125.237C216.179 122.242 213.636 121.195 210.73 121.372C210.84 119.838 212.002 117.627 212.842 120.391C213.188 119.574 213.426 118.508 214.214 117.967C215.539 122.122 222.147 124.418 218.033 128.921C217.695 127.693 217.368 126.463 217.024 125.237ZM209.344 121.595C194.043 122.705 172.561 125.88 160.317 114.151C152.333 106.504 152.759 94.5943 159.211 86.0976C162.893 81.2493 167.919 77.8352 172.967 74.583C174.915 73.3275 176.565 72.4988 178.704 71.7774C179.05 71.7402 179.376 71.8175 179.68 72.0093C179.8 71.4928 180.091 71.1107 180.555 70.8611C181.38 70.4189 182.557 70.2613 183.033 69.3436C182.525 71.0669 182.264 72.841 182.077 74.624C181.665 74.144 181.253 73.664 180.842 73.1838C180.498 76.4309 177.115 74.4657 175.095 74.8712C176.425 76.7125 177.377 77.3816 177.491 79.8151C176.5 77.9856 174.428 76.7826 172.502 76.1931C173.548 79.2877 174.287 81.1246 173.234 84.5183C171.962 83.7918 171.876 82.0466 170.332 81.6286C169.925 83.6525 169.853 85.8978 169.331 87.8617C165.379 86.059 165.765 90.9139 167.352 93.3162C168.195 94.5943 168.61 96.0738 169.363 97.3008C171.21 100.31 169.806 95.8096 171.86 96.0235C171.399 99.1976 171.238 99.5134 173.561 101.838C175.828 104.104 177.004 107.249 179.429 109.379C180.13 108.481 179.027 107.542 178.93 106.684C181.186 107.062 182.243 109.325 184.412 107.321C185.358 109.164 186.382 111.194 188.647 111.573C187.149 108.726 191.523 110.657 192.644 111.061C193.495 111.367 195.019 111.611 195.347 111.729C197.195 112.397 195.928 111.199 197.049 113.387C198.696 112.89 199.318 111.523 201.287 112.677C202.889 113.616 202.892 115.224 203.258 116.871C203.64 115.794 204.025 114.717 204.447 113.654C204.877 113.835 206.68 115.819 206.484 115.829C210.704 115.622 210.555 118.242 209.344 121.595ZM187.861 67.8773C188.708 67.2829 189.743 68.0744 190.694 67.8614C192.012 67.5672 192.76 66.4388 194.232 66.3178C193.822 67.6265 193.054 67.5039 192.404 68.5317C192.182 68.8819 192.297 69.7223 192.1 69.9237C190.451 71.6132 189.881 70.2344 188.197 68.9556C188.344 70.4977 188.64 70.9852 187.187 71.3987C185.872 71.7737 183.701 70.3928 183.038 69.3334C183.597 68.2144 186.846 68.5894 187.861 67.8773ZM198.359 65.4672C199.788 65.6035 198.067 69.8185 196.02 65.7297C196.791 65.5619 197.571 65.4744 198.359 65.4672ZM205.706 64.6522C207.959 64.1926 215.476 62.0507 216.312 65.5583C216.461 65.4708 217.02 63.4909 217.281 63.7322C218.321 64.7005 218.438 65.9835 218.358 67.3281C217.1 64.7077 217.548 67.0093 216.695 66.8298C216.472 66.7825 216.132 67.1981 215.569 67.0267C214.83 66.8014 214.299 65.2293 213.834 64.6966C213.056 65.8055 212.094 67.2332 210.539 67.1369C209.438 67.069 207.663 64.2343 209.089 67.3376C208.252 67.0611 207.283 66.4352 206.35 66.5605C205.306 66.7013 204.763 67.7323 203.785 67.8986C201.615 68.2662 201.288 66.1784 199.879 65.0447C201.822 64.9315 203.788 65.0433 205.706 64.6522ZM219.339 64.6187C219.498 63.8993 221.469 63.609 221.97 63.8373C223.196 64.394 222.743 65.1286 222.518 66.3513C221.609 65.9208 220.7 65.4912 219.789 65.0607C221.148 67.2463 218.689 67.5636 219.339 64.6187ZM601.006 192.642C600.847 187.404 600.694 182.076 599.366 176.977C598.436 173.408 596.153 167.009 591.835 166.389C585.323 165.455 581.717 178.325 579.893 182.743C579.527 177.541 579.848 172.005 577.883 167.068C576.31 163.112 572.336 159.365 568.912 163.808C565.867 167.762 565.283 173.599 564.482 178.356C563.441 184.521 562.819 190.732 562.059 196.934C559.085 191.186 558.565 184.607 556.214 178.633C553.997 172.996 550.505 167.612 547.143 162.598C544.397 158.503 541.056 154.652 536.755 152.148C533.011 149.969 526.463 147.612 522.895 151.232C519.915 154.251 520.382 158.292 520.537 162.102C520.607 163.799 520.873 164.962 519.38 165.817C518.647 166.238 517.502 166.02 516.695 166.245C515.398 166.607 514.401 167.222 513.303 168.038C505.602 173.762 502.051 184.076 500.953 193.273C499.562 204.924 504.105 214.913 508.013 225.574C508.637 227.274 510.615 230.878 510.343 232.774C510.043 234.854 507.433 234.907 505.672 234.949C500.356 235.081 494.8 234.686 489.512 234.189C476.918 233.012 464.334 226.949 453.058 221.535C451 220.547 448.091 219.982 446.411 218.428C444.833 216.964 444.416 214.622 443.053 212.944C439.71 208.829 437.58 205.318 432.654 202.831C427.64 200.3 422.521 197.96 417.63 195.187C411.579 191.757 405.989 187.412 400.189 183.571C389.415 176.435 378.713 168.612 367.289 162.544C361.979 159.724 356.047 159.267 350.536 156.958C345.169 154.71 338.58 154.707 332.98 156.127C330.251 156.819 328.394 158.459 325.886 159.529C322.945 160.784 320.547 159.399 317.958 157.902C314.005 155.614 310.085 151.886 315.715 149.418C317.626 148.58 320.018 148.263 321.687 146.946C323.465 145.543 324.892 142.955 326.339 141.198C329.554 137.291 331.474 132.794 336.18 130.364C341.382 127.678 347.552 126.947 353.099 125.191C359.11 123.289 364.995 121.027 370.895 118.807C381.523 114.806 392.573 110.487 400.21 101.68C406.799 94.0823 409.67 84.2754 409.402 74.3145C408.859 53.9516 397.953 33.2861 382.302 20.5546C363.111 4.94309 338.697 -0.262722 314.456 0.0101157C303.078 0.13851 289.502 1.62745 280.009 8.53958C271.811 14.5099 270.447 24.9521 271.666 34.3782C272.161 38.2037 273.852 43.2519 271.154 46.6231C269.644 48.5088 266.934 48.9757 264.9 50.1516C262.345 51.629 260.091 53.045 257.197 53.8263C244.899 57.147 231.948 55.9907 219.375 55.8068C198.431 55.5006 176.963 61.171 161.339 75.9291C148.722 87.8456 144.938 110.317 160.326 121.934C172.759 131.319 192.26 130.287 206.92 128.65C211.465 128.142 214.592 127.403 214.6 132.965C214.613 139.041 213.607 145.39 215.157 151.355C217.599 160.748 226.624 160.972 234.605 158.949C238.815 157.882 242.886 156.277 246.883 154.596C252.749 152.131 258.125 148.506 263.916 146.045C267.843 144.378 270.783 149.771 274.266 146.032C274.909 145.341 275.028 144.311 275.999 143.958C277.52 143.404 280.073 145.346 281.406 145.96C283.403 146.88 285.418 147.556 286.215 149.771C286.962 151.843 286.635 155.137 285.919 157.181C284.365 161.624 280.181 160.746 276.36 160.449C269.697 159.93 263.077 158.831 256.417 158.369C250.441 157.955 244.844 159.741 239.687 162.688C228.862 168.878 220.004 178.723 210.616 186.82C205.784 190.987 201.114 195.488 195.859 199.117C193.575 200.695 191.101 202.145 189.115 204.106C187.145 206.051 186.929 207.819 186.255 210.407C185.055 215.015 179.095 217.268 175.37 219.7C170.102 223.138 164.516 225.564 158.611 227.673C146.104 232.141 133.498 235.261 120.423 237.566C114.021 238.696 107.673 239.437 101.208 240.046C95.6363 240.573 89.7111 242.289 84.1458 240.917C85.7487 238.318 88.5889 236.757 90.8011 234.747C93.653 232.156 96.0787 229.087 98.2369 225.906C102.438 219.713 105.385 213.067 106.062 205.554C106.672 198.793 105.972 190.705 101.892 184.993C100.483 183.02 97.6955 182.483 96.4342 180.706C95.1803 178.939 95.6581 175.898 94.9719 173.838C93.2238 168.598 88.0367 162.106 83.4717 159.063C78.5193 155.76 71.2744 154.547 65.5532 156.268C54.9545 159.456 48.444 170.782 43.5942 179.937C40.9449 174.362 45.3816 166.092 40.206 161.526C35.8409 157.675 32.3762 165.135 30.9159 168.327C24.0624 183.309 22.506 199.199 19.6345 215.229C18.4643 214.076 19.064 211.116 19.174 209.74C19.3787 207.179 19.3598 204.666 19.3649 202.094C19.3787 195.596 20.5868 189.068 20.0331 182.576C19.7132 178.824 18.5168 170.911 13.0644 172.157C8.44045 173.215 5.54413 179.718 4.09122 183.693C1.99566 189.426 1.51185 195.103 1.64227 201.16C1.78654 207.853 0.511428 214.435 0.202487 221.119C-0.39791 234.1 0.195201 246.97 3.92 259.499C10.0194 280.015 24.0435 297.061 42.7606 307.353C53.073 313.026 64.5133 316.616 76.2756 317.387C82.65 317.805 88.8032 317.047 95.1227 316.388C101.359 315.736 107.628 315.437 113.854 314.672C127.718 312.973 141.228 308.583 153.83 302.677C160.463 299.567 166.701 295.751 173.226 292.435C175.844 291.106 177.613 289.443 179.847 287.593C182.062 285.76 182.676 285.618 185.194 285.618C184.456 283.641 186.612 283.031 187.572 281.78C187.518 282.388 187.464 282.993 187.41 283.6C188.142 282.012 188.823 282.029 189.453 283.645C190.076 281.833 190.538 279.971 191.29 278.206C194.165 279.661 193.924 283.122 197.769 280.595C200.937 278.516 203.849 276.063 207.078 274.026C214.433 269.383 220.775 263.343 228.151 258.753C228.151 263.224 228.465 267.731 227.868 272.178C227.299 276.407 225.721 280.359 224.466 284.407C222.149 291.877 221.989 299.858 219.424 307.252C218.362 310.314 215.597 312.873 214.804 315.855C213.995 318.894 215.862 321.333 212.734 323.329C210.527 324.735 207.769 325.33 205.326 326.181C201.599 327.481 198.061 329.314 194.433 330.869C177.416 338.16 160.818 345.587 145.052 355.391C130.091 364.693 114.9 374.302 101.156 385.352C89.2273 394.941 77.1691 407.34 74.2654 422.982C71.4479 438.155 78.9549 454.441 94.0289 459.438C101.867 462.038 110.728 461.715 118.89 461.828C127.673 461.949 136.98 459.833 145.615 458.3C154.735 456.684 163.697 454.152 172.843 452.708C181.618 451.321 189.667 448.224 198.298 446.315C207.492 444.283 216.92 443.178 226.165 441.349C230.326 440.525 234.403 439.311 238.577 438.55C243.145 437.716 247.764 437.401 252.288 436.297C261.064 434.152 269.464 430.694 278.278 428.7C282.241 427.801 286.142 426.601 290.106 425.763C293.757 424.992 296.6 422.94 300.258 424.624C303.212 425.986 305.569 428.318 308.364 429.944C311.992 432.053 315.817 433.941 319.597 435.755C327.197 439.402 335.076 441.921 343.021 444.658C351.366 447.534 359.56 450.813 368.206 452.712C377.069 454.66 386.11 455.201 395.035 456.741C413.312 459.895 431.433 461.309 449.987 461.424C459.364 461.484 468.741 460.371 478.096 460.502C486.379 460.619 493.579 462.486 501.153 458.083C513.253 451.047 527.289 440.449 526.992 425.057C526.722 411.114 518.358 397.796 510.515 386.798C500.989 373.446 487.407 364.041 474.095 354.83C459.908 345.014 443.972 338.23 429.063 329.662C421.436 325.281 414.404 320.566 406.123 317.45C402.171 315.966 398.314 314.241 394.408 312.642C391.265 311.353 386.726 310.643 384.037 308.505C382.357 307.173 382.196 305.155 381.754 303.172C380.771 298.786 379.229 294.627 377.734 290.397C374.847 282.228 372.927 273.911 371.687 265.346C370.504 257.18 367.879 248.686 369.238 240.388C378.182 249.039 387.372 257.354 396.521 265.775C399.951 268.931 403.318 272.153 406.765 275.29C409.351 277.645 412.588 281.143 416.195 281.842C420.801 282.736 419.119 277.639 422.281 276.849C424.216 276.366 430.046 281.279 431.575 282.25C441.262 288.4 451.99 292.297 462.645 296.484C473.819 300.874 485.311 304.773 497.334 305.877C508.44 306.899 519.796 305.589 530.513 302.562C551.858 296.537 567.564 282.241 579.09 263.708C592.224 242.591 601.779 217.852 601.006 192.642Z" fill="#00A03A"/>
<path fill-rule="evenodd" clip-rule="evenodd" d="M274.805 146.605C274.801 146.611 274.769 146.682 274.769 146.682C274.81 146.654 274.822 146.628 274.805 146.605Z" fill="#00A03A"/>
<path fill-rule="evenodd" clip-rule="evenodd" d="M275.835 146.878C275.755 146.205 275.582 145.547 275.317 144.902C274.61 146.022 273.979 146.502 274.907 147.688C275.215 147.418 275.525 147.148 275.835 146.878Z" fill="#00A03A"/>
<path fill-rule="evenodd" clip-rule="evenodd" d="M325.051 306.975C325.841 306.134 324.459 305.816 323.934 305.805C323.987 306.708 323.539 308.87 324.773 309.288C324.478 308.473 324.571 307.7 325.051 306.975Z" fill="#00A03A"/>
<path fill-rule="evenodd" clip-rule="evenodd" d="M304.204 131C302.844 133.623 305.845 134.437 307.583 133.17C308.889 132.217 309.662 129.789 309.876 128.23C310.571 123.188 307.043 118.389 305.285 113.915C304.828 112.759 304.206 108.793 302.742 108.684C301.06 108.559 300.937 112.212 300.914 113.154C300.85 115.996 301.602 118.891 302.483 121.573C303.435 124.466 305.79 127.937 304.204 131Z" fill="#00A03A"/>
<path fill-rule="evenodd" clip-rule="evenodd" d="M310.663 120.48C315.885 125.129 320.061 117.386 319.695 112.806C319.606 111.671 318.839 107.488 316.688 109.01C315.605 109.775 316.527 112.261 316.013 113.352C313.515 118.644 311.111 110.436 309.429 109.792C307.383 109.007 307.177 111.695 307.179 113.132C307.186 115.984 308.543 118.591 310.663 120.48Z" fill="#00A03A"/>
<path fill-rule="evenodd" clip-rule="evenodd" d="M291.711 121.203C292.941 119.266 294.453 116.669 294.621 114.349C294.88 110.743 292.777 111.044 291.048 113.56C289.827 115.337 288.91 118.352 286.214 117.602C282.884 116.678 283.902 112.201 282.037 110.074C277.33 116.396 286.238 129.819 291.711 121.203Z" fill="#00A03A"/>
<path fill-rule="evenodd" clip-rule="evenodd" d="M298.764 140.55C300.712 140.971 305.788 140.815 304.029 137.835C301.812 134.08 294.436 139.614 298.764 140.55Z" fill="#00A03A"/>
<path fill-rule="evenodd" clip-rule="evenodd" d="M366.966 28.5775C367.32 27.5162 366.832 27.3235 365.982 26.4878C365.177 27.2305 366.207 28.0119 366.966 28.5775Z" fill="#00A03A"/>
<path fill-rule="evenodd" clip-rule="evenodd" d="M403.277 220.791C404.562 220.995 404.974 220.316 404.516 218.753C402.489 218.621 402.077 219.301 403.277 220.791Z" fill="#00A03A"/>
<path fill-rule="evenodd" clip-rule="evenodd" d="M333.146 56.8226C334.562 57.4704 334.019 58.7991 333.995 59.9224C334.724 59.1294 336.198 57.6796 335.599 56.5404C334.673 54.7842 332.258 56.4174 333.146 56.8226Z" fill="#00A03A"/>
<path fill-rule="evenodd" clip-rule="evenodd" d="M284.889 34.7173C284.675 34.2959 284.458 33.8747 284.241 33.4534C283.362 34.1593 282.005 36.0262 283.403 36.9361C283.976 36.2405 284.471 35.501 284.889 34.7173Z" fill="#00A03A"/>
<path fill-rule="evenodd" clip-rule="evenodd" d="M301.887 47.1082C303.65 48.4906 302.804 44.248 302.751 43.9014C302.49 44.3992 300.997 46.4101 301.887 47.1082Z" fill="#00A03A"/>
<path fill-rule="evenodd" clip-rule="evenodd" d="M300.91 44.9537C300.776 44.6033 300.64 44.2527 300.506 43.9014C299.792 44.5629 298.915 45.9137 300.096 46.6876C300.419 46.1456 300.691 45.568 300.91 44.9537Z" fill="#00A03A"/>
<path fill-rule="evenodd" clip-rule="evenodd" d="M312.105 59.5229C312.249 59.6556 312.393 59.7886 312.538 59.9222C313.118 58.7494 312.457 57.8684 311.359 57.8325C311.438 58.4909 311.686 59.0544 312.105 59.5229Z" fill="#00A03A"/>
<path fill-rule="evenodd" clip-rule="evenodd" d="M264.874 191.455C265.575 190.979 266.208 190.436 266.779 189.826C264.711 188.561 265.951 191.303 263.46 189.62C262.922 190.361 263.8 192.021 264.874 191.455Z" fill="#00A03A"/>
<path fill-rule="evenodd" clip-rule="evenodd" d="M351.831 306.502C352.617 305.293 352.759 305.329 351.684 304.412C350.788 305.905 350.882 305.521 351.831 306.502Z" fill="#00A03A"/>
<path fill-rule="evenodd" clip-rule="evenodd" d="M187.373 114.307C187.801 114.754 188.23 115.2 188.658 115.647C188.858 115.062 189.949 113.41 189.208 112.86C188.597 113.342 187.984 113.825 187.373 114.307Z" fill="#00A03A"/>
<path fill-rule="evenodd" clip-rule="evenodd" d="M202.608 118.727C201.925 118.613 200.289 118.114 199.91 118.749C200.911 119.569 203.169 118.821 202.608 118.727Z" fill="#00A03A"/>
</g>
<defs>
<clipPath id="clip0">
<rect width="601.05" height="463" fill="white"/>
</clipPath>
</defs>
</svg>
