<svg width="29" height="29" viewBox="0 0 29 29" fill="none" xmlns="http://www.w3.org/2000/svg">
<g clip-path="url(#clip0)">
<path d="M24.294 4.68838C22.0038 2.39944 18.2786 2.39944 15.9884 4.68838L11.1462 9.53054L16.6438 15.0281C17.7753 14.0858 19.2098 13.4959 20.7937 13.4959C21.7023 13.4959 22.5668 13.6846 23.3535 14.0216L24.294 12.9941C26.5836 10.7045 26.5836 6.97863 24.294 4.68838Z" fill="#9B9B9B"/>
<path d="M15.7285 15.9583L10.2234 10.4531L5.48419 15.1969C3.19464 17.4865 3.19464 21.2124 5.48419 23.5026C7.77435 25.7914 11.5431 25.8351 13.8333 23.546L14.7941 22.5807C14.4571 21.794 14.2683 20.9295 14.2683 20.021C14.2684 18.4777 14.8295 17.0767 15.7285 15.9583Z" fill="#9B9B9B"/>
<path d="M15.5735 20.0211C15.5735 22.6806 17.5697 24.851 20.1412 25.1755V14.8667C17.5697 15.1911 15.5735 17.3615 15.5735 20.0211Z" fill="#9B9B9B"/>
<path d="M21.446 14.8667V25.1755C24.0176 24.851 26.0137 22.6806 26.0137 20.0211C26.0137 17.3615 24.0176 15.1911 21.446 14.8667Z" fill="#9B9B9B"/>
</g>
<defs>
<clipPath id="clip0">
<rect width="22.2696" height="22.2696" fill="white" transform="translate(3.75549 2.97168)"/>
</clipPath>
</defs>
</svg>
