<svg width="320" height="658" viewBox="0 0 320 658" fill="none" xmlns="http://www.w3.org/2000/svg">
<path d="M29.7102 236.198C33.2205 229.484 36.8346 222.595 38.821 215.023C39.7269 211.55 40.2647 207.912 40.2647 204.275C40.2647 199.967 39.5098 195.655 37.7075 191.654C35.405 186.544 33.1308 181.76 31.3757 176.886C29.6205 172.012 28.375 167.049 28.0777 161.524C28.0447 160.924 28.0306 160.32 28.0306 159.721C28.0306 154.225 29.3516 148.714 31.6777 143.623C34.0037 138.537 37.3394 133.88 41.3168 130.101C44.5346 127.039 48.2761 124.382 51.9846 121.551C55.6931 118.716 59.3685 115.701 62.3787 111.851C64.8463 108.704 66.4834 105.26 67.4884 101.693C68.4981 98.1259 68.8897 94.4315 68.8897 90.7231C68.8897 87.7601 68.6396 84.7876 68.2528 81.8577C67.7054 77.6727 67.3893 73.4311 67.3893 69.2083C67.3893 59.3049 69.1115 49.5337 73.4899 40.8712C79.1281 29.708 87.8802 21.4795 98.3026 15.8555C108.725 10.2409 120.808 7.25903 132.99 6.67871C134.401 6.61264 135.812 6.57965 137.223 6.57965C151.368 6.57965 165.39 9.89178 179.016 14.8364C192.642 19.781 205.857 26.3582 218.389 32.8267C226.164 36.8419 233.053 40.4229 239.012 44.9099C244.971 49.3968 250.033 54.7661 254.28 62.4991C259.701 72.3789 262.57 83.6742 262.57 94.9458C262.57 98.4137 262.296 101.877 261.749 105.297C261.244 108.435 260.522 111.728 259.918 115.069C259.314 118.409 258.828 121.797 258.828 125.147C258.828 127.237 259.017 129.313 259.498 131.346C259.979 133.38 260.758 135.371 261.914 137.253C262.928 138.919 264.164 140.358 265.523 141.637C267.566 143.552 269.883 145.109 272.228 146.543C274.582 147.978 276.965 149.289 279.163 150.681C287.585 156.003 294.37 163.661 299.05 172.489C303.726 181.316 306.288 191.305 306.288 201.241C306.288 206.403 305.599 211.545 304.165 216.514C303.452 218.976 302.561 221.444 301.716 223.973C300.867 226.497 300.065 229.087 299.55 231.8C299.145 233.952 298.951 236.132 298.951 238.311C298.951 243.964 300.272 249.602 302.73 254.679C303.528 256.325 304.542 257.774 305.585 259.109C307.151 261.11 308.779 262.884 309.954 264.648C310.539 265.53 311.016 266.408 311.341 267.3C311.667 268.196 311.851 269.111 311.851 270.121C311.851 270.805 311.766 271.541 311.567 272.343L314.776 273.131C315.031 272.089 315.153 271.084 315.153 270.121C315.158 268.224 314.677 266.512 313.95 264.993C312.851 262.704 311.237 260.803 309.694 258.934C308.147 257.071 306.67 255.245 305.703 253.24C303.462 248.606 302.249 243.449 302.254 238.311C302.254 236.335 302.433 234.358 302.797 232.414C303.264 229.946 304.014 227.497 304.844 225.02C305.675 222.543 306.585 220.033 307.335 217.429C308.859 212.149 309.591 206.695 309.591 201.241C309.591 190.738 306.892 180.241 301.966 170.941C297.04 161.646 289.883 153.55 280.928 147.888C277.842 145.944 274.606 144.241 271.742 142.316C270.307 141.358 268.972 140.344 267.788 139.23C266.599 138.112 265.57 136.9 264.73 135.531C263.768 133.965 263.126 132.318 262.716 130.587C262.305 128.855 262.131 127.034 262.131 125.147C262.131 122.118 262.579 118.914 263.169 115.654C263.754 112.398 264.485 109.086 265.009 105.821C265.584 102.221 265.872 98.5835 265.872 94.9458C265.868 83.1127 262.867 71.289 257.172 60.9091C252.709 52.7656 247.259 46.9764 240.994 42.2677C234.733 37.559 227.679 33.9071 219.903 29.892C207.344 23.4093 194.005 16.7662 180.144 11.7319C166.282 6.70236 151.887 3.27695 137.223 3.27695C135.765 3.27695 134.297 3.31003 132.835 3.3808C120.223 3.98471 107.668 7.06088 96.7362 12.9491C85.809 18.8374 76.5095 27.5613 70.5411 39.3849C65.8701 48.6325 64.0866 58.9322 64.0866 69.2083C64.0866 73.5962 64.4122 77.9794 64.9783 82.287C65.3511 85.1132 65.587 87.9441 65.587 90.7231C65.587 94.2004 65.219 97.588 64.3131 100.796C63.4025 104 61.9587 107.024 59.7789 109.817C57.066 113.295 53.6265 116.144 49.9794 118.928C46.337 121.717 42.4964 124.43 39.0427 127.704C34.7492 131.785 31.1823 136.777 28.677 142.25C26.1716 147.728 24.7279 153.691 24.7279 159.721C24.7279 160.382 24.7467 161.042 24.7797 161.703C25.0959 167.619 26.4405 172.927 28.2712 178.004C30.1018 183.086 32.4137 187.941 34.6973 193.013C36.2732 196.509 36.962 200.349 36.962 204.275C36.962 207.587 36.4713 210.951 35.622 214.188C33.7725 221.274 30.3 227.955 26.785 234.669L29.7102 236.198Z" fill="#192C4A"/>
<path d="M194.935 305.097C209.542 313.358 224.825 320.596 240.989 325.248C253.747 328.919 267.227 330.952 280.319 328.753C293.408 326.555 306.099 319.704 313.309 308.56C325.349 289.942 319.263 264.37 306.265 246.403C301.66 240.033 296.092 233.857 294.681 226.129C293.134 217.693 296.861 209.309 298.461 200.882C301.202 186.445 297.352 170.889 288.194 159.4C278.762 147.567 263.966 139.65 258.47 125.548C253.214 112.068 258.04 96.8801 256.686 82.4756C255.294 67.6512 246.731 53.8789 236.356 43.5934C223.244 30.5948 205.829 25.5654 192.033 14.2371C182.819 6.66446 172.099 2.1492 160.252 0.672424C125.064 -3.71545 83.0631 13.4303 73.8391 50.4724C69.8334 66.5519 74.9668 85.0801 68.0925 100.343C63.4168 110.723 53.7068 117.81 46.7192 126.803C36.6319 139.796 32.4516 157.206 35.5467 173.366C37.3962 183.01 41.7039 192.536 40.2507 202.251C38.3021 215.296 26.653 224.619 21.5621 236.787C14.6123 253.405 21.4442 273.622 34.8107 285.691C48.1772 297.765 66.7619 302.657 84.7711 303.04C94.8585 303.252 104.974 302.181 114.793 299.85C129.258 296.42 143.668 290.093 158.789 290.612C173.991 291.131 182.012 297.793 194.935 305.097Z" fill="#192C4A"/>
<path d="M199.224 262.591C211.307 265.223 224.669 260.812 232.812 251.503C240.956 242.199 243.551 228.37 239.337 216.74C234.242 202.689 220.536 192.852 216.398 178.49C211.826 162.613 214.119 145.892 201.894 133.016C194.331 125.052 184.234 119.971 173.991 116.007C162.191 111.435 149.895 108.142 137.388 106.194C132.004 105.354 126.031 104.887 121.558 108.001C117.685 110.695 115.878 115.451 114.59 119.994C112.377 127.803 111.056 135.861 110.669 143.972C110.211 153.507 110.957 163.467 107.074 172.186C101.558 184.585 87.8 191.88 82.6053 204.416C77.2927 217.23 82.8459 232.819 93.4287 241.798C104.007 250.772 118.539 253.928 132.401 253.433C141.837 253.098 151.49 251.277 160.903 252.777C173.897 254.853 186.404 259.802 199.224 262.591Z" fill="#16273D"/>
<path d="M278.814 438.578C268.642 437.063 263.65 424.003 258.687 412.859C251.039 395.68 244.471 377.553 238.333 359.7C229.623 334.387 224.027 308.079 218.45 281.85C215.299 267.016 205.881 233.871 219.026 222.005C238.309 228.479 251.218 234.806 261.65 244.511C274.728 256.674 281.433 272.112 288.071 288.38C296.432 308.881 304.509 329.612 309.897 351.179C314.101 368.023 318.937 385.838 317.588 403.564C316.144 422.527 307.118 442.782 278.814 438.578Z" fill="white"/>
<path d="M39.9674 438.578C48.545 432.902 55.1362 424.003 60.095 412.859C67.7431 395.68 74.3108 377.553 80.4538 359.7C89.1588 334.387 94.7545 308.079 100.331 281.85C103.483 267.017 113.448 234.197 100.303 222.336C81.02 228.809 67.5685 234.806 57.132 244.511C44.0533 256.674 37.3488 272.112 30.7151 288.38C22.3498 308.881 14.2724 329.612 8.88896 351.179C4.68038 368.023 -1.15126 399.082 0.198129 416.808C1.64188 435.771 9.74296 458.587 39.9674 438.578Z" fill="white"/>
<path d="M218.479 116.017C232.397 109.742 235.082 128.548 232.076 137.57C230.835 141.297 229.052 144.887 226.452 147.836C222.951 151.799 213.326 158.089 208.448 153.078C206.235 150.804 206.259 147.237 206.433 144.066C206.886 135.569 209.047 120.268 218.479 116.017Z" fill="#E57E67"/>
<path d="M100.968 116.017C87.0498 109.742 84.3605 128.548 87.366 137.57C88.6068 141.297 90.395 144.887 92.9947 147.836C96.4956 151.799 106.121 158.089 110.999 153.078C113.212 150.804 113.184 147.237 113.014 144.066C112.556 135.569 110.4 120.268 100.968 116.017Z" fill="#E57E67"/>
<path d="M290.619 497.904C280.918 400.724 271.345 343.884 260.805 275.726C258.701 262.114 254.596 247.497 248.859 240.529C239.932 229.686 226.995 224.978 214.279 220.222C198.672 214.39 182.394 209.903 165.682 209.035C163.984 208.95 162.295 208.908 160.601 208.898V208.549L160.436 208.894H160.384H160.332L160.167 208.549V208.898H160.096H160.021V208.549L159.855 208.894H159.804H159.752L159.586 208.549V208.898C157.893 208.908 156.204 208.95 154.51 209.035C137.793 209.903 121.52 214.39 105.908 220.222C93.1927 224.978 80.2556 229.686 71.3289 240.529C65.5916 247.497 61.4868 262.114 59.3825 275.726C48.8422 343.884 39.269 400.724 29.5685 497.904C23.7086 556.645 16.622 642.067 19.4434 646.115C24.8457 653.862 87.045 655.664 95.4008 656.452C109.116 657.74 122.912 657.835 136.689 657.929C144.474 657.981 152.283 657.986 160.096 657.929C167.905 657.986 175.713 657.981 183.498 657.929C197.275 657.835 211.071 657.74 224.787 656.452C233.147 655.664 295.342 653.862 300.744 646.115C303.565 642.067 296.479 556.645 290.619 497.904Z" fill="white"/>
<path d="M213.84 215.574L159.987 194.116V193.385L105.351 215.15L159.572 383.441L213.84 215.574Z" fill="#00A03A"/>
<path d="M206.924 193.385C206.924 226.034 185.73 252.499 159.587 252.499C133.443 252.499 112.25 226.034 112.25 193.385C112.25 160.731 133.443 134.267 159.587 134.267C185.73 134.267 206.924 160.731 206.924 193.385Z" fill="#06BF49"/>
<path d="M199.035 193.385C199.035 220.59 181.375 242.647 159.587 242.647C137.803 242.647 120.138 220.59 120.138 193.385C120.138 166.175 137.803 144.118 159.587 144.118C181.375 144.118 199.035 166.175 199.035 193.385Z" fill="#F89D7D"/>
<path d="M236.931 223.671C235.044 229.979 233.138 236.283 231.198 242.572C229.273 248.866 227.315 255.151 225.357 261.435C223.404 267.724 221.408 273.995 219.436 280.275L213.444 299.091L213.26 299.671L212.647 299.756L203.234 301.086L193.817 302.398L194.133 300.449C198.643 302.676 203.168 304.885 207.669 307.13L208.613 307.602L208.141 308.541C204.178 316.378 200.243 324.234 196.256 332.061C192.269 339.893 188.296 347.725 184.272 355.539C180.271 363.357 176.223 371.156 172.174 378.955C168.112 386.744 164.045 394.534 159.903 402.281C163.644 394.331 167.461 386.419 171.278 378.506C175.114 370.599 178.954 362.696 182.837 354.817C186.692 346.923 190.603 339.058 194.501 331.183C198.398 323.309 202.347 315.463 206.268 307.597L206.74 309.008C202.224 306.791 197.728 304.535 193.217 302.299L190.202 300.803L193.533 300.35L202.956 299.076L212.378 297.821L211.585 298.487L217.799 279.742C219.898 273.504 221.965 267.257 224.083 261.025C226.197 254.787 228.306 248.555 230.448 242.327C232.581 236.099 234.742 229.88 236.931 223.671Z" fill="#EBF7F9"/>
<path d="M82.3599 223.671C84.5444 229.88 86.71 236.099 88.8379 242.327C90.9799 248.555 93.0937 254.787 95.2027 261.025C97.3211 267.257 99.3924 273.504 101.492 279.742L107.706 298.487L106.908 297.821L116.335 299.076L125.753 300.35L129.088 300.803L126.074 302.299C121.563 304.535 117.067 306.791 112.547 309.008L113.018 307.597C116.939 315.463 120.888 323.309 124.785 331.183C128.683 339.058 132.594 346.923 136.453 354.817C140.336 362.696 144.172 370.599 148.008 378.506C151.83 386.419 155.647 394.331 159.388 402.281C155.246 394.534 151.179 386.744 147.112 378.955C143.064 371.156 139.02 363.357 135.019 355.539C130.995 347.725 127.017 339.893 123.035 332.061C119.043 324.234 115.113 316.378 111.15 308.541L110.678 307.602L111.622 307.13C116.123 304.885 120.643 302.676 125.153 300.449L125.474 302.398L116.057 301.086L106.644 299.756L106.031 299.671L105.847 299.091L99.8548 280.275C97.8826 273.995 95.8821 267.724 93.9335 261.435C91.9755 255.151 90.0174 248.866 88.0877 242.572C86.1533 236.283 84.2472 229.979 82.3599 223.671Z" fill="#EBF7F9"/>
<path d="M113.113 395.322C113.509 380.827 116.826 366.409 122.837 353.212C123.441 351.872 124.139 350.48 125.375 349.692C126.932 348.697 128.938 348.904 130.768 349.159C145.885 351.245 160.979 353.486 176.044 355.92C198.776 359.586 221.328 364.22 243.938 368.598C246.632 369.117 249.378 369.641 252.1 369.287C263.546 367.782 263.409 353.075 263.551 344.469C263.858 325.219 264.499 307.111 263.169 287.904C272.129 295.825 279.05 302.964 285.292 313.165C289.067 319.326 291.789 326.064 294.313 332.83C304.863 361.077 314.281 392.099 316.517 422.248C317.824 439.837 297.437 452.26 282.32 452.105C257.606 451.845 183.201 434.308 159.544 427.565C144.073 423.159 131.358 419.908 116.519 413.694C115.614 413.317 114.656 412.887 114.137 412.052C113.712 411.368 113.656 410.528 113.622 409.721C113.514 407.221 113.047 397.827 113.113 395.322Z" fill="#EBF7F9"/>
<path d="M205.579 409.462C204.923 394.977 201.347 380.62 195.1 367.532C194.468 366.206 193.751 364.828 192.5 364.059C190.925 363.097 188.924 363.337 187.098 363.625C157.298 368.287 74.8724 381.87 47.2948 394.09C30.3331 401.611 3.90677 418.431 2.6942 440.05C1.70339 457.658 22.317 469.713 37.4245 469.283C62.1287 468.576 136.204 449.703 159.738 442.541C175.128 437.856 187.778 434.374 202.503 427.896C203.404 427.499 204.357 427.051 204.857 426.211C205.273 425.518 205.315 424.673 205.334 423.866C205.395 421.366 205.692 411.963 205.579 409.462Z" fill="#EBF7F9"/>
<path d="M99.1377 103.717C99.383 91.7798 101.19 80.4798 104.398 71.119C118.232 30.7364 168.99 21.4369 199.049 50.9961C232.572 83.9618 221.196 160.929 185.008 187.695C175.331 194.848 159.539 197.73 147.961 194.447C112.924 184.51 98.3828 141.009 99.1377 103.717Z" fill="#F89D7D"/>
<path d="M99.1943 61.2486C110.088 19.9742 160.049 7.0512 192.156 34.374C197.28 38.7336 200.833 43.933 204.484 49.4956C207.584 54.2091 211.897 57.7808 214.633 62.966C217.44 68.2928 219.191 74.181 219.771 80.1731C220.182 84.4053 221.588 92.1855 221.012 96.3657C220.304 101.509 219.323 111.025 218.7 116.177C218.516 110.322 215.997 96.7574 214.232 91.1664C212.099 84.4147 208.226 78.9935 202.885 74.4075C200.332 72.2183 197.52 70.3687 194.864 68.3163C194.043 67.6794 190.306 64.3673 188.348 60.9938C175.576 77.7385 153.953 84.3911 134.448 89.2225C118.086 93.2754 100.454 112.436 99.4113 115.602C99.2037 111.586 96.6701 70.817 99.1943 61.2486Z" fill="#E57E67"/>
<path d="M99.4112 115.602C98.3213 114.403 96.2029 107.307 95.6273 105.571C93.9617 100.546 91.8622 96.2856 90.9374 91.0484C88.8095 78.9464 86.2759 78.4745 86.2759 66.1649C86.5212 50.1609 94.2495 40.753 106.323 31.0761C117.288 22.2909 130.546 16.3507 144.432 14.1567C147.211 13.7179 150.009 13.4302 152.816 13.2981C157.024 13.0999 161.309 13.2461 165.338 14.4823C168.353 15.4023 171.151 16.9075 173.93 18.4079C177.662 20.4178 181.408 22.4418 184.829 24.9472C190.415 29.0378 195.265 35.0487 201.474 38.1344C208.424 41.5928 215.463 43.3527 221.474 48.6512C226.57 53.1428 230.274 59.0688 232.925 65.3534C236.105 72.8882 232.609 78.2717 231.699 86.3114C230.948 92.9404 231.656 99.3854 228.745 105.571C226.023 111.36 218.7 116.177 218.7 116.177C218.7 116.177 217.992 104.363 217.78 102.905C217.214 99.1117 216.563 93.0866 213.949 85.0044C211.42 77.111 206.419 72.2749 199.912 67.4577C197.303 65.528 194.718 63.5275 192.519 61.1118C189.967 58.3045 188.995 55.3414 187.461 52.5624C184.597 58.9508 179.747 63.971 173.623 67.6134C163.083 73.8744 151.084 76.8609 139.515 80.5883C128.484 84.141 114.556 88.5289 108.239 99.0551C102.034 109.378 99.4112 115.602 99.4112 115.602Z" fill="#192C4A"/>
<path d="M207.971 99.3242C207.24 102.16 200.125 102.783 192.081 100.711C184.036 98.6401 178.105 94.6627 178.837 91.8224C179.568 88.9868 186.683 88.364 194.727 90.4353C202.772 92.5065 208.703 96.4839 207.971 99.3242Z" fill="#192C4A"/>
<path d="M168.877 21.5312C169.471 24.4895 169.608 27.5421 169.32 30.5523C169.028 33.5719 168.287 36.5396 167.239 39.3847C166.187 42.2344 164.795 44.9568 163.149 47.5093C161.502 50.0665 159.591 52.4586 157.463 54.6384C156.402 55.733 155.279 56.7663 154.109 57.743C152.91 58.6819 151.745 59.668 150.481 60.5172L149.551 61.1778L149.084 61.508L148.607 61.8147L146.683 63.0462C146.041 63.452 145.376 63.8152 144.72 64.2021L143.734 64.7777L142.733 65.3156C137.392 68.2173 131.792 70.5433 126.243 72.8929C123.469 74.063 120.704 75.2426 117.968 76.474L115.93 77.4223L114.915 77.8942L113.91 78.3943C113.24 78.7293 112.566 79.0501 111.9 79.3946L109.928 80.4514C109.258 80.7864 108.645 81.1922 108.008 81.5696L107.055 82.1405C106.739 82.3339 106.418 82.5179 106.121 82.7397C104.908 83.5937 103.662 84.3958 102.516 85.3441C101.936 85.8065 101.336 86.2453 100.77 86.7265L99.0906 88.1892C98.8122 88.4345 98.5244 88.6752 98.2507 88.9252L97.4439 89.699L95.8303 91.2418C91.6265 95.4646 87.8 100.084 84.2284 104.887C80.6662 109.709 77.3541 114.719 74.1127 119.787L72.9001 121.688L72.2915 122.641L71.7206 123.594L70.5835 125.5L69.555 127.468C69.3851 127.798 69.2011 128.119 69.0501 128.459L68.5877 129.468C68.2858 130.143 67.9555 130.808 67.6771 131.497C67.144 132.875 66.5637 134.243 66.1296 135.658C64.2046 141.273 63.2138 147.18 62.9354 153.101C62.7561 159.027 63.3128 164.996 64.8604 170.728C65.2143 172.172 65.6531 173.592 66.1202 175.013C66.5872 176.433 67.0921 177.848 67.5875 179.268C68.583 182.109 69.5974 184.973 70.4137 187.917C71.2299 190.851 71.8386 193.895 71.9329 196.999C72.0367 200.094 71.5319 203.255 70.3429 206.133C69.7531 207.572 69.0124 208.936 68.1914 210.243C67.3422 211.526 66.4363 212.767 65.4549 213.933C63.5063 216.277 61.3831 218.434 59.3543 220.642C58.3305 221.741 57.3397 222.864 56.4008 224.025L55.7072 224.897L55.0325 225.799C54.5796 226.398 54.1455 227.011 53.702 227.62C51.9516 230.059 50.3049 232.579 48.7196 235.136C47.1343 237.693 45.6104 240.293 44.1194 242.911C42.6191 245.525 41.1423 248.153 39.6655 250.781C41.0526 248.101 42.4303 245.421 43.8411 242.756C45.2612 240.095 46.7191 237.457 48.2431 234.848C49.767 232.244 51.3524 229.672 53.0509 227.167C53.4755 226.539 53.9001 225.917 54.3389 225.299L54.9948 224.374L55.6836 223.458C56.6084 222.251 57.585 221.085 58.5853 219.953C60.581 217.679 62.6618 215.499 64.516 213.168C65.4549 212.012 66.3042 210.795 67.0968 209.554C67.8564 208.29 68.5311 206.987 69.0595 205.624C70.1117 202.901 70.5505 199.976 70.4137 197.051C70.2863 194.126 69.6682 191.215 68.8331 188.365C67.177 182.646 64.6528 177.136 63.0769 171.21C61.435 165.303 60.8075 159.15 60.9443 153.031C61.185 146.916 62.2135 140.815 64.1763 135.007C64.6245 133.545 65.2143 132.129 65.7663 130.7C66.0541 129.987 66.3938 129.298 66.7005 128.6L67.177 127.553C67.3327 127.204 67.5262 126.869 67.696 126.529L68.7623 124.486L69.9324 122.504L70.5175 121.518L71.1261 120.56L72.3387 118.654C75.6083 113.573 78.9629 108.534 82.577 103.665C86.2147 98.8144 90.093 94.1104 94.4337 89.8264L96.0993 88.2599L96.9343 87.4767C97.2174 87.2172 97.51 86.9766 97.7978 86.7265L99.5388 85.2356C100.129 84.7496 100.747 84.2967 101.351 83.8249C102.535 82.8624 103.832 82.0367 105.092 81.1686C105.403 80.9421 105.738 80.7534 106.069 80.5599L107.06 79.9701C107.72 79.588 108.371 79.1681 109.051 78.8331L111.075 77.7715C111.749 77.4271 112.438 77.1062 113.118 76.7713L114.146 76.2758L115.179 75.804C115.868 75.4926 116.557 75.1718 117.251 74.8698C120.03 73.6573 122.828 72.5155 125.621 71.3784C131.202 69.1137 136.774 66.8537 142.092 64.103L143.087 63.5888L144.069 63.0414C144.715 62.6734 145.38 62.329 146.017 61.9421L147.928 60.7673L148.405 60.4748L148.867 60.1634L149.792 59.5312C151.047 58.7197 152.203 57.776 153.396 56.8796C154.562 55.9501 155.671 54.9546 156.737 53.9166C158.874 51.8359 160.809 49.5428 162.488 47.0753C164.173 44.6077 165.612 41.9655 166.72 39.1865C167.829 36.4075 168.631 33.4964 169.004 30.5193C169.396 27.5468 169.367 24.5083 168.877 21.5312Z" fill="#00A03A"/>
<path d="M113.066 99.3242C113.797 102.16 120.912 102.783 128.956 100.711C137.005 98.6401 142.931 94.6627 142.2 91.8224C141.474 88.9868 134.359 88.364 126.309 90.4353C118.265 92.5065 112.334 96.4839 113.066 99.3242Z" fill="#192C4A"/>
<path d="M149.258 144.878C149.494 143.689 150.051 142.551 150.778 141.542C151.514 140.537 152.424 139.636 153.462 138.919C154.5 138.197 155.647 137.621 156.859 137.22C158.077 136.814 159.369 136.625 160.672 136.635C161.974 136.659 163.3 136.89 164.512 137.437C165.715 137.965 166.749 138.692 167.692 139.466C168.645 140.24 169.551 141.112 170.283 142.132C171.004 143.141 171.566 144.321 171.655 145.538C171.118 144.448 170.363 143.575 169.509 142.82C168.655 142.061 167.716 141.414 166.734 140.81C165.744 140.211 164.762 139.65 163.757 139.282C163.507 139.197 163.257 139.107 163.007 139.041L162.229 138.881C161.974 138.819 161.705 138.815 161.441 138.777C161.176 138.735 160.908 138.744 160.639 138.739L160.238 138.725C160.105 138.735 159.969 138.744 159.837 138.753C159.568 138.777 159.294 138.772 159.03 138.829C158.761 138.867 158.487 138.9 158.223 138.947C157.954 139.013 157.69 139.074 157.421 139.131C156.359 139.409 155.321 139.815 154.33 140.325C153.33 140.829 152.401 141.48 151.547 142.231C150.688 142.986 149.919 143.858 149.258 144.878Z" fill="#E57E67"/>
<path d="M197.214 125.042C205.867 116.904 191.774 108.255 183.14 112.879C177.577 115.861 176.591 123.24 182.267 126.637C184.329 127.869 186.881 128.293 189.339 128.142C192.255 127.963 195.176 126.958 197.214 125.042Z" fill="white"/>
<path d="M195.973 118.588C195.973 122.453 192.84 125.585 188.976 125.585C185.107 125.585 181.974 122.453 181.974 118.588C181.974 114.72 185.107 111.587 188.976 111.587C192.84 111.587 195.973 114.72 195.973 118.588Z" fill="#192C4A"/>
<path d="M188.07 117.168C188.07 118.456 187.027 119.499 185.734 119.499C184.446 119.499 183.404 118.456 183.404 117.168C183.404 115.88 184.446 114.833 185.734 114.833C187.027 114.833 188.07 115.88 188.07 117.168Z" fill="white"/>
<path d="M175.907 119.088C176.86 116.621 178.78 114.531 181.092 113.063C183.413 111.601 186.178 110.751 188.995 110.723C191.811 110.69 194.595 111.478 196.95 112.893C199.29 114.309 201.257 116.361 202.257 118.815C200.158 117.234 198.039 116.036 195.812 115.234C193.595 114.427 191.302 114.012 189.028 114.031C186.758 114.054 184.475 114.517 182.271 115.37C180.059 116.22 177.968 117.461 175.907 119.088Z" fill="#192C4A"/>
<path d="M137.218 155.14C140.841 157.352 144.554 159.032 148.395 160.264C152.221 161.49 156.156 162.288 160.035 162.387C160.521 162.42 161.002 162.387 161.488 162.391C161.969 162.387 162.46 162.335 162.946 162.311C163.432 162.278 163.922 162.222 164.408 162.179C164.899 162.118 165.385 162.038 165.876 161.981C167.834 161.684 169.782 161.24 171.712 160.683C173.637 160.122 175.539 159.433 177.397 158.608C179.266 157.787 181.073 156.81 182.861 155.649C181.672 157.423 180.101 158.942 178.384 160.259C176.661 161.575 174.765 162.665 172.778 163.566C170.797 164.463 168.707 165.147 166.565 165.623C166.022 165.737 165.484 165.836 164.937 165.935C164.39 166.01 163.847 166.095 163.295 166.157C162.738 166.199 162.186 166.26 161.629 166.274L160.785 166.298C160.507 166.312 160.228 166.308 159.95 166.293C155.468 166.175 151.16 164.982 147.244 163.104C145.291 162.156 143.432 161.023 141.728 159.702C140.03 158.372 138.468 156.871 137.218 155.14Z" fill="#EB4447"/>
<path d="M123.483 125.043C114.83 116.904 128.923 108.255 137.558 112.879C143.12 115.861 144.106 123.24 138.43 126.637C136.369 127.874 133.816 128.293 131.358 128.142C128.442 127.963 125.522 126.958 123.483 125.043Z" fill="white"/>
<path d="M124.719 118.588C124.719 122.453 127.857 125.585 131.721 125.585C135.585 125.585 138.723 122.453 138.723 118.588C138.723 114.72 135.585 111.587 131.721 111.587C127.857 111.587 124.719 114.72 124.719 118.588Z" fill="#192C4A"/>
<path d="M125.3 117.168C125.3 118.456 126.347 119.499 127.635 119.499C128.924 119.499 129.966 118.456 129.966 117.168C129.966 115.88 128.924 114.833 127.635 114.833C126.347 114.833 125.3 115.88 125.3 117.168Z" fill="white"/>
<path d="M144.791 119.088C142.729 117.461 140.639 116.22 138.421 115.37C136.222 114.517 133.939 114.054 131.665 114.031C129.395 114.012 127.102 114.427 124.885 115.234C122.658 116.036 120.535 117.234 118.44 118.815C119.44 116.361 121.407 114.309 123.748 112.893C126.097 111.478 128.886 110.69 131.702 110.723C134.519 110.751 137.284 111.601 139.605 113.063C141.917 114.531 143.838 116.621 144.791 119.088Z" fill="#192C4A"/>
<path d="M111.358 139.145C109.994 142.972 113.174 147.605 118.468 149.492C123.757 151.384 129.155 149.818 130.523 145.996C131.891 142.174 128.706 137.541 123.413 135.649C118.123 133.757 112.726 135.323 111.358 139.145Z" fill="#F37379"/>
<path d="M209.339 139.145C210.703 142.972 207.523 147.605 202.229 149.492C196.935 151.384 191.538 149.818 190.174 145.996C188.806 142.174 191.991 137.541 197.28 135.649C202.574 133.757 207.971 135.323 209.339 139.145Z" fill="#F37379"/>
<path d="M265.028 331.599L263.782 300.284C263.782 300.284 261.371 317.317 257.431 320.709C253.496 324.102 226.122 329.659 226.122 329.659L265.028 331.599Z" fill="#EBF7F9"/>
<path d="M115.585 348.414C111.362 344.993 107.083 341.644 102.808 338.289C98.9771 335.288 95.113 332.264 90.7487 330.108C82.8977 326.229 73.9474 325.399 65.2282 324.625C58.6228 324.045 51.824 323.479 45.4828 325.408C44.709 325.644 43.8456 326.012 43.6003 326.781C43.2936 327.734 44.1098 328.669 44.9402 329.221C47.0634 330.627 49.6583 331.08 52.1684 331.485C56.8771 332.25 61.5858 332.967 66.3087 333.642C55.3013 332.519 43.7371 331.476 33.5695 335.835C32.7108 336.204 31.7813 336.704 31.5029 337.595C30.6395 340.356 34.6452 341.134 36.5325 341.36C41.5951 341.964 46.8322 341.912 51.5928 343.738C47.7239 343.988 43.8739 344.484 40.0664 345.22C37.4006 345.734 34.683 346.399 32.4466 347.938C32.0078 348.235 31.5737 348.589 31.3567 349.075C30.8943 350.117 31.6209 351.339 32.5457 352.009C34.1451 353.165 36.2258 353.335 38.1932 353.467C43.2039 353.797 48.1957 354.166 53.2017 354.538C50.5878 354.84 47.9881 355.317 45.4356 355.968C43.3266 356.501 41.1232 357.232 39.7125 358.893C39.5002 359.143 39.3067 359.417 39.2501 359.738C39.1558 360.252 39.4389 360.761 39.7786 361.167C41.043 362.672 43.086 363.305 45.0487 363.427C47.0115 363.545 48.9742 363.234 50.9417 363.21C58.1133 363.13 63.9543 362.55 70.7909 365.772C75.8535 368.164 80.4726 371.406 85.5116 373.85C89.7484 375.902 94.2401 377.374 98.7177 378.837C110.022 382.531 121.332 386.225 132.641 389.924C135.236 390.774 137.921 391.632 140.643 391.373C144.257 391.028 148.173 387.41 148.57 383.711C149.004 379.625 145.29 376.058 142.785 373.321C138.765 368.933 134.505 364.772 130.103 360.776C125.399 356.501 120.53 352.41 115.585 348.414Z" fill="#EBF7F9"/>
<path d="M114.476 337.85C109.834 335.024 105.149 332.268 100.464 329.518C96.2691 327.05 92.0322 324.568 87.4179 323.011C79.1234 320.218 70.14 320.582 61.3973 320.983C54.773 321.28 47.96 321.624 41.9302 324.384C41.1942 324.724 40.3921 325.201 40.2458 325.998C40.0713 326.979 41.0055 327.8 41.9019 328.239C44.195 329.348 46.823 329.452 49.3708 329.518C54.1361 329.65 58.9014 329.73 63.6667 329.773C52.6121 330.126 41.0102 330.631 31.5126 336.307C30.7105 336.784 29.8565 337.402 29.7008 338.327C29.2101 341.176 33.2866 341.412 35.188 341.384C40.2836 341.308 45.4688 340.558 50.4323 341.738C46.6295 342.502 42.8786 343.502 39.2031 344.743C36.627 345.607 34.0273 346.626 32.0127 348.447C31.6163 348.806 31.2342 349.211 31.0832 349.721C30.7671 350.815 31.6494 351.929 32.6544 352.472C34.3906 353.406 36.4761 353.297 38.4435 353.165C43.4589 352.825 48.4507 352.523 53.4614 352.226C50.9089 352.873 48.3988 353.694 45.9548 354.676C43.9354 355.491 41.85 356.506 40.6705 358.341C40.4959 358.615 40.3402 358.912 40.3261 359.237C40.3025 359.761 40.6516 360.228 41.0385 360.582C42.4917 361.908 44.6054 362.262 46.5682 362.12C48.5262 361.979 50.4323 361.408 52.3762 361.125C59.4723 360.091 65.186 358.733 72.3906 361.021C77.7268 362.715 82.7375 365.314 88.0549 367.065C92.5277 368.537 97.175 369.391 101.808 370.245C113.505 372.401 125.206 374.562 136.907 376.718C139.591 377.213 142.37 377.704 145.026 377.086C148.57 376.265 151.967 372.156 151.863 368.438C151.75 364.333 147.598 361.29 144.748 358.912C140.181 355.1 135.406 351.542 130.509 348.164C125.276 344.554 119.907 341.153 114.476 337.85Z" fill="#F89D7D"/>
<path d="M113.113 382.871C113.509 368.372 116.826 353.958 122.837 340.757C123.441 339.421 124.139 338.029 125.375 337.241C126.932 336.246 128.938 336.454 130.768 336.704C145.885 338.794 160.979 341.035 176.044 343.465C198.776 347.135 221.328 351.769 243.938 356.142C246.632 356.666 249.378 357.19 252.1 356.831C263.546 355.331 263.409 340.624 263.551 332.018C263.858 312.768 262.527 293.533 261.201 274.325C270.156 282.247 279.05 290.513 285.292 300.709C289.067 306.871 291.789 313.608 294.313 320.379C304.863 348.622 314.281 379.643 316.517 409.797C317.824 427.386 297.437 439.809 282.32 439.649C257.606 439.389 183.201 421.852 159.544 415.114C144.073 410.708 131.358 407.457 116.519 401.243C115.614 400.866 114.656 400.436 114.137 399.601C113.712 398.917 113.656 398.073 113.622 397.27C113.514 394.77 113.047 385.371 113.113 382.871Z" fill="white"/>
<path d="M199.7 347.503C204.31 344.63 208.971 341.827 213.623 339.029C228.353 330.173 246.801 329.527 263.593 330.702C263.688 333.136 263.664 335.562 263.763 338.001C264.032 344.856 264.249 352.009 261.395 358.246C260.635 359.902 259.654 361.488 258.309 362.715C256.993 363.918 255.384 364.743 253.756 365.46C249.043 367.551 244.584 368.593 239.531 368.73C234.454 368.872 228.726 370.264 224.201 372.552C218.375 375.496 212.217 377.907 206.197 380.422C197.464 384.069 186.956 384.786 177.666 386.598C174.986 387.121 172.212 387.64 169.546 387.051C165.998 386.263 162.559 382.191 162.625 378.473C162.696 374.364 166.815 371.278 169.641 368.872C174.17 365.012 178.907 361.408 183.767 357.982C188.966 354.321 194.303 350.863 199.7 347.503Z" fill="#EBF7F9"/>
<path d="M210.363 400.549C209.703 386.065 206.131 371.707 199.884 358.619C199.252 357.293 198.53 355.916 197.28 355.147C195.704 354.184 193.704 354.425 191.878 354.71C162.078 359.374 79.6566 372.958 52.079 385.178C35.1125 392.694 8.68618 409.519 7.47361 431.137C6.48752 448.745 27.0964 460.8 42.2039 460.371C66.9128 459.663 140.988 440.79 164.517 433.624C179.908 428.938 192.562 425.461 207.287 418.978C208.184 418.587 209.137 418.139 209.641 417.299C210.052 416.605 210.094 415.761 210.113 414.954C210.175 412.453 210.477 403.05 210.363 400.549Z" fill="#EBF7F9"/>
<path d="M199.7 342.214C204.31 339.341 208.971 336.543 213.623 333.74C228.353 324.884 246.801 324.243 263.593 325.413C263.688 327.852 263.664 330.273 263.763 332.712C264.032 339.567 264.249 346.72 261.395 352.957C260.635 354.616 259.654 356.199 258.309 357.43C256.993 358.629 255.384 359.454 253.756 360.171C249.043 362.262 244.584 363.304 239.531 363.446C234.454 363.583 228.726 364.974 224.201 367.263C218.375 370.207 212.217 372.618 206.197 375.133C197.464 378.78 186.956 379.497 177.666 381.309C174.986 381.832 172.212 382.351 169.546 381.762C165.998 380.974 162.559 376.902 162.625 373.184C162.696 369.075 166.815 365.994 169.641 363.583C174.17 359.723 178.907 356.123 183.767 352.693C188.966 349.032 194.303 345.573 199.7 342.214Z" fill="#F89D7D"/>
<path d="M283.466 496.979L233.18 487.981C233.18 487.981 239.762 580.009 266.924 576.531C294.082 573.059 283.466 496.979 283.466 496.979Z" fill="#EBF7F9"/>
<path d="M35.9807 496.979L86.262 487.981C86.262 487.981 79.6849 580.009 52.5225 576.531C25.3649 573.059 35.9807 496.979 35.9807 496.979Z" fill="#EBF7F9"/>
<path d="M205.579 395.133C204.923 380.648 201.347 366.296 195.1 353.203C194.468 351.877 193.751 350.499 192.5 349.73C190.925 348.768 188.924 349.008 187.098 349.296C157.298 353.958 74.8724 367.546 47.2948 379.766C30.3331 387.282 3.90677 404.102 2.6942 425.721C1.70339 443.333 22.317 455.384 37.4245 454.954C62.1287 454.251 136.204 435.374 159.738 428.212C175.128 423.527 187.778 420.045 202.503 413.567C203.404 413.17 204.357 412.722 204.857 411.882C205.273 411.189 205.315 410.344 205.334 409.542C205.395 407.037 205.692 397.633 205.579 395.133Z" fill="white"/>
<path d="M192.5 349.73C191.712 349.282 190.802 349.122 189.915 349.126C189.018 349.126 188.136 349.273 187.249 349.433L181.932 350.405L171.302 352.349L150.042 356.265C142.964 357.605 135.883 358.912 128.815 360.304C121.742 361.672 114.679 363.064 107.63 364.536C100.577 365.98 93.5419 367.499 86.5307 369.108C79.5101 370.693 72.532 372.434 65.5963 374.326C63.86 374.784 62.1426 375.307 60.4158 375.803L57.8444 376.6L56.5611 377.001L55.2824 377.421C54.4332 377.714 53.5745 377.973 52.7346 378.285L50.2104 379.2L47.7192 380.195C46.8888 380.54 46.0726 380.903 45.2517 381.266C38.6982 384.196 32.3806 387.678 26.3791 391.67C32.1116 387.291 38.3301 383.545 44.8129 380.332C45.6244 379.931 46.4406 379.54 47.2663 379.167L49.7622 378.077L52.2864 377.072C53.1262 376.728 53.9802 376.44 54.8295 376.119L56.1034 375.652L57.3914 375.218L59.9628 374.354C61.6897 373.816 63.4071 373.25 65.1386 372.745C68.597 371.689 72.0838 370.736 75.5752 369.811C77.3162 369.348 79.0713 368.914 80.817 368.461L86.0731 367.169C93.0937 365.494 100.147 363.956 107.206 362.479C114.273 361.04 121.355 359.653 128.447 358.35C135.543 357.067 142.644 355.807 149.759 354.655C156.874 353.481 164.003 352.387 171.132 351.334C174.703 350.825 178.27 350.311 181.842 349.829L187.202 349.117C188.098 349.008 189.009 348.914 189.919 348.966C190.825 349.018 191.741 349.235 192.5 349.73Z" fill="#EBF7F9"/>
<path d="M75.0893 73.8506C76.4953 69.9015 78.727 66.2402 81.4352 62.9941C84.167 59.7527 87.3565 56.9171 90.7866 54.4448C94.2072 51.9442 97.8779 49.8258 101.615 47.8772C105.366 45.9522 109.22 44.2536 113.089 42.6306C116.968 41.05 120.836 39.4883 124.658 37.8416C128.494 36.2186 132.254 34.4541 135.916 32.5149C136.826 32.0242 137.718 31.5005 138.624 30.9956C139.516 30.4719 140.384 29.9105 141.275 29.3821C142.148 28.8253 142.993 28.2308 143.856 27.6552C144.701 27.056 145.512 26.4143 146.347 25.801C149.617 23.2532 152.585 20.3043 155.123 16.9733C152.972 20.5686 150.155 23.7769 147.013 26.5936C146.206 27.2683 145.404 27.9619 144.583 28.6224C143.738 29.2547 142.903 29.9104 142.045 30.5238C141.176 31.1183 140.308 31.7222 139.417 32.2931C138.52 32.8451 137.628 33.4113 136.718 33.9445C135.802 34.4635 134.887 34.9966 133.962 35.5015C133.028 35.9921 132.099 36.4828 131.16 36.9594L128.319 38.3418L125.46 39.6676C121.629 41.385 117.746 42.9656 113.891 44.5745C110.037 46.1503 106.229 47.8205 102.511 49.6559C98.7791 51.4724 95.1698 53.5059 91.7255 55.7848C88.2954 58.0872 85.0493 60.6728 82.2043 63.6782C79.3451 66.6648 76.9247 70.0855 75.0893 73.8506Z" fill="#00A03A"/>
</svg>
