<svg width="40" height="40" viewBox="0 0 40 40" fill="none" xmlns="http://www.w3.org/2000/svg">
<g clip-path="url(#clip0)">
<path d="M22.1098 4.97339C20.7181 3.58147 18.8674 2.81494 16.8991 2.81494C14.9307 2.81494 13.0801 3.58147 11.6883 4.97339L8.6806 7.98112L19.1022 18.4027L22.1098 15.395C24.9831 12.5218 24.9831 7.84661 22.1098 4.97339Z" fill="#9B9B9B"/>
<path d="M7.22951 9.43262L4.2218 12.4403C1.34851 15.3135 1.34851 19.9887 4.2218 22.8619C5.61365 24.2538 7.46419 25.0203 9.43255 25.0203C11.4009 25.0203 13.2515 24.2538 14.6434 22.8619L17.651 19.8542L7.22951 9.43262Z" fill="#9B9B9B"/>
<path d="M34.9186 17.7815C33.5267 16.3896 31.6762 15.623 29.7078 15.623C27.7394 15.623 25.8888 16.3896 24.497 17.7815L21.4893 20.7892L31.9109 31.2108L34.9186 28.2031C37.7919 25.3299 37.7919 20.6547 34.9186 17.7815Z" fill="#9B9B9B"/>
<path d="M20.0372 22.2407L17.0295 25.2484C14.1563 28.1216 14.1563 32.7967 17.0295 35.67C18.4661 37.1065 20.3532 37.8248 22.2403 37.8248C24.1274 37.8248 26.0145 37.1065 27.4511 35.67L30.4588 32.6623L20.0372 22.2407Z" fill="#9B9B9B"/>
</g>
<defs>
<clipPath id="clip0">
<rect width="35.01" height="35.01" fill="white" transform="translate(2.06488 2.81494)"/>
</clipPath>
</defs>
</svg>
