<svg width="40" height="40" viewBox="0 0 40 40" fill="none" xmlns="http://www.w3.org/2000/svg">
<path d="M4.17636 18.6991H36.593V33.2866C36.593 33.7164 36.4223 34.1287 36.1183 34.4327C35.8143 34.7366 35.4021 34.9074 34.9722 34.9074H5.79719C5.36732 34.9074 4.95506 34.7366 4.65109 34.4327C4.34713 34.1287 4.17636 33.7164 4.17636 33.2866V18.6991ZM28.4889 5.73239H34.9722C35.4021 5.73239 35.8143 5.90315 36.1183 6.20712C36.4223 6.51109 36.593 6.92335 36.593 7.35322V15.4574H4.17636V7.35322C4.17636 6.92335 4.34713 6.51109 4.65109 6.20712C4.95506 5.90315 5.36732 5.73239 5.79719 5.73239H12.2805V2.49072H15.5222V5.73239H25.2472V2.49072H28.4889V5.73239Z" fill="#9B9B9B"/>
</svg>
